<svg width="118" height="112" viewBox="0 0 118 112" fill="none" xmlns="http://www.w3.org/2000/svg">
<path d="M59 111.392C91.5848 111.392 118 86.456 118 55.696C118 24.936 91.5848 0 59 0C26.4152 0 0 24.936 0 55.696C0 86.456 26.4152 111.392 59 111.392Z" fill="#FFC226"/>
<path d="M69.6418 74.7964L69.3527 75.3441V75.9634C69.3527 82.8505 69.3518 87.9123 69.1477 91.6855C68.9395 95.5349 68.5289 97.6509 67.9358 98.8692C67.6701 99.4149 67.3919 99.7243 67.1063 99.9355C66.8059 100.158 66.3696 100.365 65.6632 100.526C64.126 100.877 61.9601 100.892 58.5 100.892C55.0363 100.892 52.895 100.876 51.3902 100.528C50.7026 100.369 50.29 100.166 50.0117 99.9546C49.7473 99.7539 49.4829 99.4539 49.2289 98.9083C48.6595 97.6852 48.281 95.5633 48.0996 91.7032C47.9368 88.2389 47.9378 83.6987 47.9391 77.6633C47.9393 77.1094 47.9394 76.5429 47.9394 75.9634V75.2978L47.6084 74.7203C46.627 73.008 45.7118 71.347 44.8172 69.7235C44.1311 68.4784 43.4572 67.2554 42.7749 66.0482C41.2808 63.4045 39.8001 60.9352 38.4218 59.2787C33.5176 53.3846 31.5 45.4833 31.5 37.5634C31.5 22.2675 43.8256 9.892 59 9.892C74.1744 9.892 86.5 22.2675 86.5 37.5634C86.5 45.2265 83.4075 53.2074 78.3559 59.2787C76.9548 60.9627 75.5285 63.4594 74.1258 66.1083C73.4165 67.4478 72.6866 68.8787 71.9472 70.3283L71.9289 70.3642C71.1801 71.8324 70.4195 73.323 69.6418 74.7964Z" stroke="white" stroke-width="5"/>
</svg>
