<svg width="118" height="129" viewBox="0 0 118 129" fill="none" xmlns="http://www.w3.org/2000/svg">
<path d="M54.5279 8.94427C56.3705 5.25903 61.6295 5.25903 63.4721 8.94427L114.382 110.764C116.044 114.088 113.627 118 109.91 118H8.09017C4.37326 118 1.95578 114.088 3.61803 110.764L54.5279 8.94427Z" fill="#FF8A00"/>
<path d="M61.6973 78.8389H57.2661L55.3984 40.46H63.5649L61.6973 78.8389ZM54.7759 89.9351C54.7759 89.0073 54.8979 88.2261 55.1421 87.5913C55.3862 86.9321 55.7158 86.4072 56.1309 86.0166C56.5459 85.6016 57.0342 85.3086 57.5957 85.1377C58.1572 84.9424 58.7676 84.8447 59.4268 84.8447C60.0615 84.8447 60.6597 84.9424 61.2212 85.1377C61.8071 85.3086 62.3076 85.6016 62.7227 86.0166C63.1377 86.4072 63.4673 86.9321 63.7114 87.5913C63.9556 88.2261 64.0776 89.0073 64.0776 89.9351C64.0776 90.8384 63.9556 91.6196 63.7114 92.2788C63.4673 92.9136 63.1377 93.4385 62.7227 93.8535C62.3076 94.2686 61.8071 94.5737 61.2212 94.769C60.6597 94.9644 60.0615 95.062 59.4268 95.062C58.7676 95.062 58.1572 94.9644 57.5957 94.769C57.0342 94.5737 56.5459 94.2686 56.1309 93.8535C55.7158 93.4385 55.3862 92.9136 55.1421 92.2788C54.8979 91.6196 54.7759 90.8384 54.7759 89.9351Z" fill="white"/>
</svg>
