<svg id="svg" version="1.1" xmlns="http://www.w3.org/2000/svg" xmlns:xlink="http://www.w3.org/1999/xlink" width="400" height="400" viewBox="0, 0, 400,400"><g id="svgg"><path id="path0" d="M178.000 49.214 C 177.450 49.396,175.830 49.839,174.400 50.197 C 164.326 52.721,156.874 60.855,154.977 71.400 C 154.106 76.241,154.114 235.934,154.986 240.400 C 156.160 246.416,158.229 250.449,162.272 254.596 C 164.644 257.030,169.681 260.400,170.946 260.400 C 171.280 260.400,171.651 260.558,171.770 260.752 C 172.942 262.648,273.480 263.822,281.000 262.027 C 291.525 259.515,298.853 252.085,301.562 241.181 L 302.411 237.762 302.306 154.781 L 302.200 71.800 301.097 68.600 C 297.499 58.167,290.209 51.567,280.000 49.502 C 277.357 48.968,179.575 48.691,178.000 49.214 M275.958 75.362 L 276.800 76.124 276.800 155.826 L 276.800 235.529 275.563 236.569 L 274.327 237.610 227.975 237.505 L 181.622 237.400 180.711 236.489 L 179.800 235.578 179.695 156.489 C 179.585 73.202,179.537 75.531,181.364 74.786 C 183.346 73.978,275.046 74.536,275.958 75.362 M121.000 138.016 C 108.902 140.503,100.994 148.229,98.296 160.200 C 97.709 162.801,97.376 325.497,97.953 327.600 C 98.164 328.370,98.649 330.170,99.030 331.600 C 101.515 340.908,108.633 347.915,118.400 350.667 C 122.275 351.759,218.199 352.015,223.600 350.947 C 234.777 348.738,242.711 340.800,245.337 329.200 C 246.098 325.838,246.135 265.792,245.376 265.033 C 244.641 264.298,222.334 264.075,221.200 264.791 C 220.678 265.121,220.574 269.039,220.400 294.743 C 220.208 323.111,220.169 324.351,219.438 325.158 L 218.676 326.000 171.800 326.000 L 124.924 326.000 124.162 325.158 C 123.007 323.882,122.960 165.269,124.114 164.114 C 124.762 163.465,126.064 163.382,138.429 163.200 C 149.933 163.031,152.089 162.908,152.409 162.400 C 153.121 161.272,152.902 138.959,152.171 138.229 C 151.471 137.529,124.275 137.344,121.000 138.016 M181.849 138.208 C 181.100 138.957,180.863 161.247,181.591 162.400 C 181.916 162.914,184.599 163.029,200.371 163.200 C 217.345 163.384,218.828 163.455,219.486 164.114 C 220.157 164.786,220.212 166.931,220.400 200.029 C 220.574 230.736,220.677 235.278,221.200 235.609 C 222.333 236.324,244.641 236.102,245.376 235.367 C 246.153 234.590,246.088 163.850,245.307 160.200 C 242.950 149.188,236.571 142.318,225.200 138.548 C 221.983 137.481,182.882 137.175,181.849 138.208 " stroke="none" fill="#fcfcfc" fill-rule="evenodd"></path><path id="path1" d="" stroke="none" fill="#000000" fill-rule="evenodd"></path></g></svg>