<svg id="svg" version="1.1" xmlns="http://www.w3.org/2000/svg" xmlns:xlink="http://www.w3.org/1999/xlink" width="400" height="400" viewBox="0, 0, 400,400"><g id="svgg"><path id="path0" d="M227.200 56.772 C 221.847 58.772,219.998 60.394,217.805 65.016 C 215.636 69.588,215.992 76.719,218.532 79.524 C 218.899 79.931,219.200 80.446,219.200 80.670 C 219.200 81.931,223.254 84.936,226.589 86.147 C 227.412 86.446,237.915 86.653,259.377 86.793 L 290.954 87.000 206.747 171.209 C 125.014 252.944,120.889 257.184,120.168 260.200 C 120.010 260.860,119.637 261.755,119.340 262.189 C 118.643 263.207,118.637 267.143,119.331 267.969 C 119.623 268.316,120.093 269.406,120.374 270.391 C 122.426 277.563,132.034 282.432,139.000 279.829 C 140.100 279.418,141.540 278.894,142.200 278.664 C 143.179 278.324,163.897 258.147,177.515 244.272 C 178.772 242.991,180.022 241.731,180.293 241.472 C 180.565 241.212,182.185 239.591,183.893 237.868 C 185.602 236.146,187.226 234.526,187.502 234.268 C 187.778 234.011,190.118 231.662,192.702 229.050 C 195.286 226.437,197.705 224.007,198.077 223.650 C 198.450 223.292,200.160 221.591,201.877 219.869 C 203.595 218.147,205.234 216.527,205.519 216.269 C 205.805 216.011,206.255 215.570,206.519 215.288 C 206.784 215.006,208.403 213.386,210.118 211.688 C 211.833 209.990,214.263 207.561,215.518 206.292 C 216.773 205.022,226.502 195.302,237.138 184.692 C 247.774 174.081,256.684 165.171,256.938 164.891 C 257.192 164.611,258.454 163.351,259.743 162.091 C 261.032 160.831,263.462 158.391,265.143 156.669 C 266.824 154.947,268.427 153.327,268.704 153.069 C 268.981 152.811,270.511 151.266,272.104 149.636 C 273.697 148.005,275.302 146.385,275.671 146.036 C 276.040 145.686,277.390 144.356,278.671 143.080 C 279.952 141.803,281.584 140.183,282.297 139.480 C 283.010 138.776,284.630 137.159,285.897 135.887 C 287.164 134.614,289.597 132.184,291.304 130.487 C 293.012 128.789,294.605 127.193,294.844 126.940 C 295.084 126.687,295.594 126.147,295.977 125.740 C 296.361 125.333,298.008 123.719,299.637 122.153 C 301.267 120.587,303.631 118.247,304.891 116.953 C 306.151 115.659,307.411 114.381,307.691 114.113 C 307.971 113.845,309.010 112.815,310.000 111.823 L 311.800 110.019 312.000 137.909 L 312.200 165.800 313.272 168.088 C 317.446 176.993,331.024 179.448,337.735 172.511 C 338.325 171.900,339.174 171.015,339.619 170.545 C 340.065 170.074,340.797 168.634,341.247 167.345 C 341.696 166.055,342.230 164.829,342.432 164.620 C 343.097 163.933,342.907 70.125,342.238 68.862 C 341.928 68.278,341.376 66.953,341.011 65.917 C 339.777 62.418,334.958 58.499,329.600 56.637 C 326.757 55.649,229.863 55.777,227.200 56.772 M82.800 91.483 C 74.573 92.955,66.836 97.472,63.440 102.785 C 62.802 103.783,61.880 105.230,61.391 106.000 C 60.259 107.783,59.010 111.129,58.331 114.200 C 57.897 116.160,57.800 135.100,57.800 217.400 C 57.800 329.360,57.596 320.802,60.398 326.242 C 63.992 333.220,67.238 336.529,73.772 339.876 C 76.380 341.212,78.525 341.972,81.200 342.507 C 84.355 343.138,282.585 343.140,285.400 342.509 C 292.265 340.970,299.626 336.445,302.746 331.846 C 305.715 327.469,307.677 323.237,308.515 319.400 C 308.818 318.012,308.991 297.115,309.079 251.124 L 309.207 184.849 308.353 182.524 C 304.873 173.058,290.531 171.412,284.725 179.812 C 282.269 183.365,282.400 179.439,282.400 249.414 C 282.400 320.465,282.589 315.427,279.895 316.149 C 279.403 316.281,235.769 316.392,182.931 316.395 L 86.861 316.400 85.631 315.364 L 84.400 314.329 84.409 217.264 C 84.418 122.158,84.433 120.180,85.186 119.200 L 85.954 118.200 149.547 118.106 C 212.277 118.013,213.168 118.001,215.301 117.203 C 225.997 113.201,226.467 97.340,216.035 92.448 L 213.800 91.400 148.800 91.352 C 113.050 91.326,83.350 91.385,82.800 91.483 " stroke="none" fill="#fcfcfc" fill-rule="evenodd"></path><path id="path1" d="" stroke="none" fill="#000000" fill-rule="evenodd"></path></g></svg>