<svg id="svg" version="1.1" xmlns="http://www.w3.org/2000/svg" xmlns:xlink="http://www.w3.org/1999/xlink" width="400" height="400" viewBox="0, 0, 400,400"><g id="svgg"><path id="path0" d="M258.600 57.853 C 244.962 59.952,236.739 72.856,240.426 86.373 C 241.414 89.998,242.324 91.527,248.699 100.276 C 258.212 113.333,276.646 138.755,278.175 140.930 C 278.822 141.848,280.604 144.310,282.136 146.400 C 286.647 152.555,287.110 153.192,290.432 157.800 C 300.843 172.245,302.634 174.708,303.473 175.731 C 303.983 176.353,304.400 177.043,304.400 177.266 C 304.400 177.654,237.551 177.490,196.000 177.000 C 179.522 176.805,63.700 176.200,43.000 176.200 C 28.816 176.200,25.402 177.238,19.741 183.271 C 11.919 191.608,11.919 208.792,19.741 217.129 C 25.402 223.162,28.816 224.200,43.000 224.200 C 63.700 224.200,179.522 223.595,196.000 223.400 C 237.551 222.910,304.400 222.746,304.400 223.134 C 304.400 223.357,303.983 224.047,303.473 224.669 C 302.634 225.692,300.843 228.155,290.432 242.600 C 287.110 247.208,286.647 247.845,282.136 254.000 C 280.604 256.090,278.822 258.552,278.175 259.470 C 276.646 261.645,258.212 287.067,248.699 300.124 C 239.486 312.768,237.929 317.787,240.427 326.800 C 245.333 344.505,270.332 348.460,280.431 333.129 C 280.964 332.321,283.650 328.572,286.400 324.799 C 289.150 321.027,291.760 317.435,292.200 316.818 C 294.454 313.654,298.648 307.858,300.605 305.200 C 302.984 301.969,307.648 295.510,309.082 293.461 C 309.567 292.767,312.133 289.230,314.783 285.600 C 320.693 277.505,331.112 263.147,332.200 261.599 C 332.640 260.972,335.205 257.431,337.899 253.730 C 340.594 250.028,345.410 243.400,348.603 239.000 C 351.796 234.600,357.062 227.354,360.304 222.898 C 370.529 208.846,371.872 205.562,370.821 197.179 C 370.096 191.398,369.213 189.746,360.304 177.502 C 357.062 173.046,351.796 165.800,348.603 161.400 C 345.410 157.000,340.594 150.372,337.899 146.670 C 335.205 142.969,332.640 139.428,332.200 138.801 C 331.112 137.253,320.693 122.895,314.783 114.800 C 312.133 111.170,309.567 107.633,309.082 106.939 C 307.648 104.890,302.984 98.431,300.605 95.200 C 298.648 92.542,294.454 86.746,292.200 83.582 C 291.760 82.965,289.150 79.373,286.400 75.601 C 283.650 71.828,280.964 68.079,280.431 67.271 C 276.146 60.765,266.557 56.629,258.600 57.853 " stroke="none" fill="#fcfcfc" fill-rule="evenodd"></path><path id="path1" d="" stroke="none" fill="#000000" fill-rule="evenodd"></path></g></svg>