<svg id="svg" version="1.1" xmlns="http://www.w3.org/2000/svg" xmlns:xlink="http://www.w3.org/1999/xlink" width="400" height="400" viewBox="0, 0, 400,400"><g id="svgg"><path id="path0" d="M128.000 240.200 L 128.000 262.000 155.760 262.000 L 183.520 262.000 183.934 260.100 C 184.161 259.055,184.455 257.412,184.586 256.450 C 185.057 253.004,185.500 252.717,193.697 250.549 C 200.936 248.633,201.510 248.683,208.639 251.836 C 215.766 254.988,215.911 255.114,216.761 258.858 L 217.429 261.800 245.715 261.903 L 274.000 262.005 274.000 240.203 L 274.000 218.400 201.000 218.400 L 128.000 218.400 128.000 240.200 M189.261 263.102 C 186.449 273.703,176.222 285.534,168.383 287.255 C 167.183 287.518,166.076 287.839,165.925 287.967 C 165.641 288.209,166.576 319.979,167.018 325.106 C 167.230 327.553,167.860 329.200,168.585 329.200 C 168.655 329.200,170.487 329.571,172.656 330.024 C 194.602 334.607,209.674 334.623,230.200 330.083 L 237.000 328.579 237.118 326.590 C 237.516 319.878,239.064 286.578,238.983 286.476 C 238.929 286.407,237.831 286.202,236.542 286.020 C 225.561 284.465,217.152 277.572,212.967 266.694 L 211.925 263.987 211.214 264.894 C 210.002 266.438,206.800 272.036,206.800 272.612 C 206.800 272.912,207.656 274.292,208.703 275.679 C 209.749 277.065,211.952 280.810,213.598 284.000 L 216.591 289.800 216.527 294.530 C 216.429 301.802,215.250 313.525,214.428 315.400 C 210.998 323.223,206.664 325.966,201.811 323.385 C 200.121 322.487,199.742 322.423,198.506 322.831 C 190.325 325.531,185.097 315.068,185.099 296.000 C 185.100 286.304,186.347 282.942,193.787 272.574 C 194.204 271.993,194.055 271.477,191.717 265.400 C 189.980 260.886,189.875 260.788,189.261 263.102 M276.043 282.181 L 274.686 282.598 274.954 289.216 L 275.223 295.835 273.512 297.421 C 270.693 300.033,268.927 302.181,269.121 302.763 C 269.221 303.064,269.010 303.474,268.652 303.675 C 268.293 303.876,267.998 304.436,267.995 304.920 C 267.978 307.566,267.914 307.600,262.999 307.600 L 258.491 307.600 258.293 308.900 C 258.006 310.785,258.041 310.800,262.784 310.800 L 267.120 310.800 267.120 314.287 C 267.120 316.467,267.285 317.828,267.560 317.920 C 267.802 318.001,268.000 318.560,268.000 319.163 C 268.000 319.767,268.328 320.605,268.728 321.027 C 269.432 321.768,269.432 321.871,268.728 324.132 C 268.328 325.419,268.000 327.076,268.000 327.816 C 268.000 328.556,267.730 330.198,267.400 331.465 C 266.596 334.552,266.640 335.163,267.700 335.582 C 269.080 336.128,269.762 334.990,270.730 330.532 C 272.221 323.660,271.801 324.266,275.116 324.195 C 277.170 324.151,278.201 323.943,278.727 323.466 C 279.132 323.100,279.657 322.800,279.894 322.800 C 281.473 322.800,286.120 315.437,286.635 312.121 C 286.859 310.674,287.058 310.407,288.073 310.184 C 290.400 309.673,290.476 306.800,288.163 306.800 C 287.359 306.800,287.231 306.612,287.274 305.488 C 287.386 302.499,284.232 296.400,282.573 296.400 C 282.258 296.400,282.000 296.220,282.000 296.000 C 282.000 295.780,281.218 295.600,280.261 295.600 L 278.522 295.600 278.263 291.100 C 278.120 288.625,278.003 285.576,278.002 284.324 C 278.000 281.725,277.897 281.612,276.043 282.181 M122.800 286.199 C 122.800 287.445,123.361 292.358,123.793 294.900 C 123.971 295.949,123.905 296.000,122.370 296.000 C 118.327 296.000,115.112 300.052,114.602 305.790 C 114.465 307.324,114.319 308.584,114.277 308.590 C 112.141 308.870,111.932 312.000,114.049 312.000 C 114.575 312.000,114.800 312.287,114.800 312.958 C 114.800 317.950,121.020 326.000,124.878 326.000 C 125.715 326.000,126.400 326.194,126.400 326.431 C 126.400 326.685,126.999 326.808,127.851 326.731 L 129.302 326.600 130.654 331.343 C 132.272 337.018,132.152 336.800,133.636 336.800 C 135.625 336.800,135.526 334.893,133.158 327.606 C 132.536 325.690,132.519 325.332,133.023 324.775 C 133.340 324.424,133.600 323.954,133.600 323.730 C 133.600 323.507,133.949 323.008,134.376 322.622 C 135.500 321.605,136.394 318.663,136.679 315.048 L 136.927 311.896 140.042 312.155 L 143.158 312.415 143.095 310.832 C 143.021 308.966,142.690 308.814,138.715 308.805 L 136.031 308.800 135.452 306.851 C 134.764 304.533,133.812 302.616,132.879 301.668 C 132.505 301.289,131.750 300.441,131.200 299.783 C 130.650 299.125,129.560 298.100,128.777 297.505 C 127.361 296.428,127.352 296.401,126.695 291.349 C 125.977 285.833,125.945 285.758,124.073 285.221 C 122.823 284.862,122.800 284.880,122.800 286.199 " stroke="none" fill="#2f2f2f" fill-rule="evenodd"></path><path id="path1" d="M226.670 53.750 C 225.184 54.975,224.348 56.729,225.132 56.978 C 226.003 57.255,226.396 62.496,226.398 73.900 C 226.400 80.024,226.444 80.400,227.162 80.400 C 227.581 80.400,231.136 81.010,235.062 81.755 C 244.632 83.573,249.214 84.076,250.783 83.484 C 252.207 82.946,252.174 83.401,251.366 75.556 C 251.017 72.170,250.743 67.379,250.757 64.909 C 250.788 59.596,251.510 60.288,243.600 58.053 C 240.410 57.151,235.419 55.713,232.508 54.856 C 228.484 53.672,227.086 53.407,226.670 53.750 M157.200 57.476 C 144.463 61.417,145.568 60.559,145.698 66.400 C 145.754 68.930,145.649 73.889,145.465 77.420 L 145.130 83.839 146.130 84.295 C 147.129 84.750,150.508 84.628,151.353 84.106 C 151.598 83.954,152.069 83.818,152.400 83.804 C 154.197 83.728,158.506 83.034,164.100 81.920 L 170.400 80.665 170.400 69.119 C 170.400 57.951,170.426 57.565,171.198 57.279 C 171.971 56.993,171.963 56.939,170.934 55.492 C 169.559 53.560,170.116 53.479,157.200 57.476 M262.627 70.723 L 261.053 71.434 262.462 72.266 L 263.871 73.097 264.135 79.212 C 264.281 82.575,264.400 86.889,264.400 88.798 L 264.400 92.269 266.397 94.834 C 267.495 96.246,269.023 98.210,269.791 99.200 C 270.560 100.190,271.731 101.575,272.394 102.278 C 273.567 103.522,273.601 103.669,273.642 107.678 C 273.666 109.945,273.801 113.420,273.942 115.400 L 274.200 119.000 275.552 116.800 C 276.296 115.590,277.106 114.465,277.352 114.300 C 277.675 114.084,277.678 113.916,277.363 113.700 C 276.783 113.302,275.787 103.653,276.276 103.164 C 276.500 102.940,276.214 99.008,275.543 93.098 C 274.938 87.764,274.433 83.113,274.421 82.762 C 274.409 82.411,272.960 80.211,271.200 77.874 C 269.440 75.536,267.995 73.483,267.989 73.312 C 267.911 71.141,264.909 69.692,262.627 70.723 M127.600 76.630 C 125.510 79.635,123.601 82.477,123.359 82.947 C 122.563 84.485,121.018 103.512,121.600 104.600 C 122.001 105.350,122.004 106.603,121.611 110.845 C 121.193 115.359,121.204 116.215,121.685 116.576 C 121.995 116.809,122.368 117.315,122.512 117.700 C 122.657 118.085,122.966 118.400,123.200 118.400 C 123.434 118.400,123.789 118.805,123.988 119.300 C 124.223 119.886,124.358 117.496,124.375 112.462 L 124.400 104.723 128.800 99.164 L 133.200 93.606 133.200 84.236 C 133.200 74.679,133.301 73.600,134.194 73.600 C 135.459 73.600,135.712 72.423,134.543 71.978 C 131.534 70.831,131.720 70.706,127.600 76.630 M295.366 105.500 C 295.228 106.105,294.771 107.757,294.349 109.171 C 293.668 111.453,293.801 113.292,294.558 112.067 C 294.795 111.684,296.800 105.000,296.800 104.594 C 296.800 103.841,295.565 104.621,295.366 105.500 M100.806 108.572 C 100.548 109.814,100.082 111.318,99.771 111.915 C 98.911 113.564,99.726 117.724,101.065 118.521 C 101.407 118.725,101.515 119.201,101.359 119.821 C 101.224 120.360,101.284 120.800,101.493 120.800 C 101.702 120.800,102.100 121.565,102.378 122.500 C 103.852 127.466,104.583 127.821,105.046 123.795 C 105.197 122.478,105.499 121.284,105.716 121.142 C 106.250 120.793,104.828 115.586,104.125 115.316 C 103.831 115.203,103.322 115.333,102.995 115.604 C 102.511 116.005,102.400 115.981,102.400 115.472 C 102.400 115.127,102.750 114.600,103.178 114.300 C 103.944 113.764,103.940 113.703,102.935 110.378 C 101.624 106.043,101.375 105.831,100.806 108.572 M185.855 112.900 C 185.524 114.055,184.701 117.363,184.027 120.251 C 183.352 123.139,182.552 126.109,182.248 126.851 C 181.945 127.593,181.490 129.411,181.238 130.892 C 180.986 132.372,180.062 136.315,179.186 139.654 C 178.309 142.993,177.639 145.768,177.696 145.819 C 178.058 146.145,210.199 154.000,211.171 154.000 C 212.225 154.000,212.336 153.896,212.064 153.161 C 211.778 152.389,218.731 123.470,219.981 120.233 C 220.565 118.719,220.794 118.825,213.094 117.043 C 209.522 116.216,205.748 115.291,204.707 114.987 C 203.666 114.683,201.686 114.219,200.307 113.956 C 198.928 113.694,195.334 112.876,192.320 112.139 C 189.307 111.403,186.754 110.800,186.649 110.800 C 186.543 110.800,186.186 111.745,185.855 112.900 M292.424 116.039 C 291.802 119.199,292.105 119.435,293.161 116.613 C 294.148 113.975,294.184 113.600,293.452 113.600 C 293.100 113.600,292.732 114.474,292.424 116.039 M101.949 117.633 C 101.618 117.839,101.341 117.802,101.251 117.541 C 101.169 117.303,101.349 116.954,101.651 116.767 C 101.982 116.561,102.259 116.598,102.349 116.859 C 102.431 117.097,102.251 117.446,101.949 117.633 M286.634 129.900 C 285.012 134.772,284.732 136.154,284.181 142.000 C 283.839 145.630,282.593 157.420,281.411 168.200 C 278.379 195.863,278.598 193.200,279.353 193.200 C 279.709 193.200,280.000 193.065,280.000 192.900 C 280.001 192.735,280.454 188.190,281.008 182.800 C 281.562 177.410,282.650 166.790,283.426 159.200 C 285.341 140.459,286.048 135.971,287.988 130.219 C 289.765 124.949,289.863 124.400,289.033 124.400 C 288.660 124.400,287.839 126.283,286.634 129.900 M108.800 126.835 C 108.800 127.163,109.623 129.764,110.630 132.615 C 112.435 137.730,114.820 151.914,114.792 157.371 C 114.773 161.120,119.356 195.200,119.880 195.200 C 120.668 195.200,120.822 196.583,116.424 164.263 C 115.531 157.697,114.800 151.582,114.800 150.674 C 114.800 146.136,113.115 137.055,111.345 132.061 C 109.630 127.220,108.800 125.516,108.800 126.835 M200.921 129.843 C 204.501 130.642,204.477 130.618,203.793 132.800 C 203.483 133.790,203.043 135.336,202.816 136.236 L 202.403 137.873 198.799 137.036 C 196.817 136.576,195.262 136.020,195.343 135.800 C 195.425 135.580,195.819 134.005,196.219 132.300 C 197.037 128.813,196.819 128.927,200.921 129.843 M296.006 132.100 C 296.011 132.828,296.086 132.885,296.400 132.400 C 296.901 131.624,296.901 131.200,296.400 131.200 C 296.180 131.200,296.003 131.605,296.006 132.100 M103.200 132.443 C 103.200 133.025,103.016 133.215,102.604 133.057 C 101.713 132.715,101.423 134.489,101.972 136.921 C 102.230 138.065,102.588 139.720,102.766 140.600 C 103.451 143.978,104.552 147.200,105.020 147.200 C 105.474 147.200,105.700 147.922,106.208 151.000 C 106.317 151.660,106.569 152.740,106.768 153.400 C 106.968 154.060,107.341 156.130,107.598 158.000 C 107.854 159.870,108.403 162.930,108.817 164.800 C 109.230 166.670,110.042 170.720,110.621 173.800 C 111.200 176.880,111.756 179.760,111.856 180.200 C 111.956 180.640,112.390 183.070,112.820 185.600 C 114.476 195.347,114.296 194.800,115.847 194.800 C 117.062 194.800,117.191 194.699,117.003 193.900 C 115.960 189.477,114.800 183.700,114.800 182.925 C 114.800 181.916,111.901 168.857,108.200 153.200 C 106.978 148.030,105.505 141.055,104.926 137.700 C 104.002 132.347,103.200 129.905,103.200 132.443 M290.939 152.438 C 290.208 153.329,290.151 153.592,284.167 183.399 C 282.001 194.186,282.012 193.357,284.033 193.086 C 284.931 192.966,285.739 192.794,285.828 192.705 C 286.104 192.429,288.421 178.529,288.459 176.920 C 288.478 176.084,289.012 172.070,289.645 168.000 C 290.278 163.930,290.797 160.105,290.798 159.500 C 290.799 158.895,290.991 158.400,291.224 158.400 C 291.457 158.400,291.545 158.235,291.421 158.034 C 291.296 157.832,291.364 157.222,291.570 156.678 C 292.101 155.283,291.564 151.677,290.939 152.438 M231.472 170.870 C 232.708 175.441,232.352 175.100,236.200 175.414 C 239.824 175.709,248.590 178.149,249.800 179.199 C 252.056 181.156,266.707 184.414,266.992 183.022 C 267.543 180.324,267.621 176.116,267.127 175.710 C 264.130 173.248,249.417 169.246,239.600 168.223 C 236.190 167.867,232.739 167.478,231.932 167.358 L 230.463 167.140 231.472 170.870 M158.800 169.021 C 153.243 169.758,150.274 170.408,144.400 172.172 C 140.330 173.394,136.764 174.395,136.476 174.397 C 134.933 174.407,131.592 177.396,131.779 178.600 C 131.881 179.260,132.092 181.150,132.246 182.800 C 132.401 184.450,132.604 185.575,132.697 185.300 C 132.790 185.025,133.436 184.800,134.132 184.800 C 134.828 184.800,136.748 184.364,138.399 183.830 C 140.049 183.297,142.750 182.458,144.400 181.966 C 146.050 181.474,147.773 180.739,148.230 180.332 C 149.796 178.936,157.973 176.507,162.164 176.192 L 166.005 175.904 166.579 173.852 C 167.506 170.537,167.995 168.621,167.998 168.300 C 168.001 167.871,166.678 167.975,158.800 169.021 M176.610 171.500 C 176.211 173.205,175.745 175.186,175.574 175.903 C 175.206 177.442,175.509 177.674,178.793 178.368 C 179.999 178.623,181.394 178.934,181.893 179.059 C 182.621 179.242,182.800 179.120,182.800 178.443 C 182.800 177.388,182.421 177.363,188.697 178.841 C 191.610 179.527,194.239 179.994,194.539 179.879 C 195.275 179.596,196.505 174.712,195.930 174.357 C 195.666 174.193,195.787 173.935,196.249 173.677 C 196.658 173.448,196.900 173.167,196.786 173.053 C 196.564 172.831,178.429 168.400,177.743 168.400 C 177.518 168.400,177.008 169.795,176.610 171.500 M206.154 178.500 C 206.270 182.735,206.378 187.550,206.394 189.200 C 206.416 191.330,206.536 192.008,206.811 191.538 C 207.023 191.175,208.322 190.349,209.698 189.704 C 211.074 189.059,214.450 187.213,217.200 185.602 C 219.950 183.991,222.883 182.278,223.717 181.795 L 225.234 180.917 222.317 179.399 C 220.713 178.565,218.410 177.345,217.200 176.689 C 214.877 175.429,214.523 175.246,210.400 173.186 C 208.970 172.471,207.516 171.642,207.169 171.343 C 206.003 170.341,205.943 170.771,206.154 178.500 M173.683 182.852 C 173.182 184.641,172.823 186.134,172.886 186.170 C 173.638 186.596,191.660 190.873,191.861 190.672 C 192.254 190.279,194.104 182.771,193.866 182.532 C 192.902 181.569,186.709 180.462,186.511 181.218 C 186.246 182.233,186.015 182.218,180.400 180.800 C 174.221 179.240,174.739 179.082,173.683 182.852 M198.283 191.009 C 197.687 192.224,197.200 193.304,197.200 193.409 C 197.200 193.514,198.283 193.600,199.606 193.600 L 202.012 193.600 200.800 191.200 C 199.342 188.312,199.596 188.332,198.283 191.009 M280.800 269.051 C 280.800 269.125,281.700 269.643,282.800 270.200 C 284.667 271.146,284.800 271.163,284.800 270.460 C 284.800 269.875,284.353 269.618,282.800 269.311 C 281.700 269.093,280.800 268.976,280.800 269.051 M117.200 271.156 C 116.320 271.398,115.395 273.600,116.173 273.600 C 116.649 273.600,120.389 271.385,120.394 271.100 C 120.401 270.740,118.592 270.772,117.200 271.156 M278.064 286.281 C 278.210 288.877,278.345 292.035,278.364 293.300 L 278.400 295.600 280.053 295.600 C 283.536 295.600,286.330 298.822,287.249 303.900 C 287.639 306.058,287.936 306.800,288.407 306.800 C 288.755 306.800,289.231 306.991,289.464 307.224 C 290.552 308.312,291.026 297.698,290.008 295.021 C 289.780 294.423,289.680 293.794,289.784 293.625 C 289.889 293.456,289.716 292.976,289.400 292.559 C 289.084 292.142,288.820 291.431,288.813 290.980 C 288.776 288.588,283.508 282.759,280.947 282.275 C 280.257 282.145,279.267 281.932,278.747 281.801 L 277.800 281.563 278.064 286.281 M272.600 283.173 C 269.922 284.439,264.727 290.423,263.305 293.881 C 262.917 294.825,262.494 295.598,262.364 295.599 C 262.234 295.599,261.630 296.905,261.022 298.500 C 260.415 300.095,259.756 301.713,259.559 302.095 C 259.361 302.477,259.200 303.332,259.200 303.995 C 259.200 304.658,259.027 305.200,258.816 305.200 C 258.605 305.200,258.470 305.740,258.516 306.399 L 258.600 307.598 262.836 307.599 L 267.072 307.600 267.608 305.900 C 267.903 304.965,268.267 304.020,268.417 303.800 C 268.567 303.580,268.803 302.950,268.941 302.400 C 269.197 301.380,271.574 298.667,273.917 296.718 L 275.218 295.636 274.947 289.018 C 274.798 285.378,274.569 282.404,274.438 282.409 C 274.307 282.414,273.480 282.758,272.600 283.173 M119.263 284.790 C 116.015 285.577,113.600 288.042,111.986 292.216 C 110.200 296.838,110.193 309.024,111.974 312.352 C 112.208 312.789,112.400 313.539,112.400 314.017 C 112.400 314.495,112.925 315.991,113.568 317.343 C 114.210 318.694,114.858 320.469,115.009 321.286 C 115.160 322.103,115.535 322.980,115.842 323.235 C 116.149 323.490,116.400 323.946,116.400 324.249 C 116.400 324.552,116.550 324.800,116.732 324.800 C 116.915 324.800,117.320 325.295,117.632 325.900 C 117.944 326.505,118.677 327.450,119.261 328.000 C 119.846 328.550,120.445 329.360,120.594 329.800 C 120.829 330.498,122.579 332.139,125.961 334.834 C 126.490 335.255,127.146 335.600,127.418 335.600 C 127.691 335.600,128.018 335.870,128.145 336.200 C 128.278 336.547,128.876 336.800,129.564 336.800 C 130.218 336.800,130.864 336.980,131.000 337.200 C 131.293 337.675,132.800 337.742,132.800 337.280 C 132.800 337.104,132.628 336.788,132.419 336.579 C 132.209 336.369,131.420 334.038,130.666 331.399 C 129.313 326.666,129.279 326.602,128.185 326.725 C 122.739 327.338,114.800 319.681,114.800 313.816 C 114.800 312.306,114.673 312.000,114.049 312.000 C 112.328 312.000,111.870 309.724,113.450 309.028 C 114.175 308.708,114.326 308.216,114.506 305.579 C 114.737 302.209,115.037 301.442,117.131 298.875 C 118.857 296.759,120.253 296.000,122.423 296.000 C 123.588 296.000,124.028 295.850,123.894 295.500 C 123.789 295.225,123.470 292.750,123.184 290.000 C 122.564 284.035,122.536 283.997,119.263 284.790 M126.131 287.055 C 126.261 287.855,126.583 290.285,126.846 292.455 C 127.109 294.625,127.480 296.400,127.670 296.400 C 128.864 296.400,133.566 302.155,134.998 305.370 L 136.527 308.800 139.031 308.800 C 140.408 308.800,141.819 308.909,142.167 309.043 C 142.957 309.346,143.031 308.144,142.280 307.231 C 141.993 306.884,141.533 305.702,141.256 304.605 C 140.979 303.508,140.514 302.338,140.223 302.005 C 139.933 301.672,139.558 300.950,139.392 300.400 C 138.951 298.945,136.790 295.699,134.731 293.400 C 133.746 292.300,132.824 291.085,132.683 290.700 C 132.541 290.315,132.162 290.000,131.840 290.000 C 131.518 290.000,130.870 289.460,130.400 288.800 C 129.930 288.140,129.333 287.600,129.073 287.600 C 128.813 287.599,128.077 287.149,127.438 286.600 C 125.928 285.301,125.851 285.328,126.131 287.055 M288.341 310.051 C 287.548 310.342,287.212 310.812,287.005 311.920 C 285.611 319.366,279.028 325.207,273.038 324.314 C 272.170 324.184,272.023 324.578,270.768 330.400 C 270.318 332.490,269.610 334.675,269.196 335.255 C 268.782 335.835,268.553 336.420,268.688 336.555 C 269.194 337.060,272.309 336.792,272.800 336.200 C 273.074 335.870,273.473 335.600,273.687 335.600 C 273.901 335.600,274.554 335.264,275.138 334.852 C 275.722 334.441,276.639 333.968,277.177 333.801 C 277.714 333.634,278.704 332.981,279.377 332.351 C 280.049 331.720,280.735 331.203,280.900 331.202 C 281.065 331.201,281.200 331.006,281.200 330.769 C 281.200 330.532,281.695 329.836,282.300 329.222 C 282.905 328.608,283.758 327.407,284.196 326.553 C 284.634 325.699,285.098 324.910,285.228 324.800 C 285.591 324.492,287.467 320.451,288.356 318.063 C 289.040 316.225,289.988 309.541,289.552 309.632 C 289.468 309.649,288.923 309.838,288.341 310.051 M257.910 312.700 C 257.619 315.443,257.895 320.143,258.462 322.107 C 258.730 323.038,258.967 324.189,258.988 324.664 C 259.009 325.139,259.230 325.949,259.480 326.464 C 259.729 326.979,260.172 327.985,260.464 328.700 C 260.756 329.415,261.131 330.000,261.298 330.000 C 261.464 330.000,261.600 330.270,261.600 330.600 C 261.600 330.930,261.771 331.200,261.981 331.200 C 262.190 331.200,262.919 332.010,263.600 333.000 C 264.365 334.112,265.142 334.800,265.632 334.800 C 266.068 334.800,266.529 335.070,266.655 335.400 C 266.782 335.730,267.048 336.000,267.246 336.000 C 267.445 336.000,267.396 335.662,267.138 335.249 C 266.770 334.660,266.813 333.900,267.335 331.749 C 267.702 330.237,268.002 328.444,268.001 327.764 C 268.000 327.084,268.268 325.644,268.596 324.564 C 269.327 322.154,269.336 321.797,268.686 321.129 C 267.885 320.306,267.201 317.536,266.929 314.016 L 266.681 310.800 262.396 310.800 L 258.111 310.800 257.910 312.700 M136.862 313.863 C 136.834 317.526,135.688 321.384,134.000 323.505 L 132.456 325.444 133.164 327.622 C 134.803 332.670,135.385 335.613,134.896 336.394 C 134.473 337.072,134.553 337.143,135.714 337.117 C 138.349 337.058,142.383 333.226,142.047 331.100 C 142.021 330.935,142.141 330.800,142.313 330.800 C 142.560 330.800,143.710 327.693,143.794 326.800 C 143.804 326.690,143.927 326.420,144.068 326.200 C 144.653 325.285,144.287 313.912,143.639 312.863 C 143.493 312.627,141.912 312.311,140.125 312.162 L 136.878 311.891 136.862 313.863 " stroke="none" fill="#efd923" fill-rule="evenodd"></path><path id="path2" d="M197.200 51.971 C 197.200 52.175,196.165 52.449,194.900 52.580 C 188.615 53.230,173.600 56.534,173.600 57.267 C 173.600 57.666,173.240 58.218,172.800 58.493 C 172.031 58.973,172.000 59.426,172.000 70.247 C 172.000 83.149,172.313 82.170,167.972 82.829 C 166.338 83.077,161.400 83.984,157.000 84.845 C 147.580 86.687,146.445 86.744,144.944 85.454 L 143.844 84.507 144.290 75.955 C 144.535 71.251,144.678 67.345,144.608 67.274 C 144.117 66.784,137.200 71.747,137.200 72.589 C 137.200 73.142,136.707 73.944,136.000 74.539 L 134.800 75.548 134.800 84.977 L 134.800 94.406 130.400 99.964 L 126.000 105.523 126.000 113.139 C 126.000 120.515,125.973 120.774,125.126 121.367 C 123.629 122.415,123.651 125.854,125.182 130.000 C 126.511 133.600,126.947 136.644,130.025 163.800 C 131.507 176.877,131.042 175.592,133.744 174.066 C 134.943 173.390,138.146 172.184,140.862 171.388 C 143.578 170.591,146.970 169.585,148.400 169.153 C 149.830 168.720,154.912 167.867,159.693 167.257 C 164.474 166.647,168.450 166.070,168.528 165.974 C 168.606 165.878,169.792 162.981,171.164 159.536 C 174.921 150.096,175.427 149.943,183.410 155.821 C 197.305 166.051,200.023 166.644,207.137 161.003 C 222.598 148.742,222.961 148.710,227.422 159.221 C 228.855 162.598,230.067 165.395,230.114 165.437 C 230.161 165.479,233.890 165.907,238.400 166.388 C 248.963 167.515,262.426 170.787,265.768 173.040 L 267.800 174.410 267.906 171.105 C 268.291 159.107,271.277 131.856,272.633 127.960 C 274.216 123.413,274.387 121.053,273.207 120.064 C 272.487 119.462,272.389 118.702,272.145 111.886 L 271.876 104.371 270.416 102.686 C 269.613 101.759,268.525 100.370,267.998 99.600 C 267.471 98.830,266.085 97.065,264.920 95.677 L 262.800 93.154 262.800 89.641 C 262.800 87.708,262.683 83.444,262.540 80.164 L 262.280 74.200 261.043 73.394 C 260.267 72.888,259.729 72.147,259.601 71.409 C 259.397 70.231,253.124 65.943,252.507 66.560 C 252.377 66.690,252.601 70.484,253.004 74.991 C 254.060 86.790,254.124 86.748,239.200 84.036 C 236.890 83.617,232.881 82.955,230.290 82.566 C 227.700 82.176,225.429 81.665,225.243 81.429 C 225.058 81.193,224.804 75.985,224.679 69.856 C 224.462 59.181,224.417 58.687,223.626 58.133 C 223.172 57.815,222.800 57.238,222.800 56.852 C 222.800 56.103,210.094 53.533,202.400 52.726 C 200.530 52.530,198.940 52.197,198.867 51.985 C 198.696 51.491,197.200 51.479,197.200 51.971 M292.707 77.379 C 291.934 78.442,290.466 82.414,284.050 100.800 C 281.631 107.730,278.123 117.743,276.254 123.052 L 272.856 132.704 270.425 159.422 C 267.715 189.200,268.094 186.676,266.457 185.829 C 265.788 185.483,264.689 185.200,264.016 185.200 C 263.344 185.200,259.996 184.390,256.578 183.400 C 253.160 182.410,250.124 181.600,249.830 181.600 C 249.537 181.600,249.051 181.260,248.749 180.845 C 247.918 179.702,239.374 177.317,234.939 176.991 L 231.278 176.721 230.032 172.061 C 228.809 167.485,227.377 163.560,224.462 156.800 C 222.339 151.874,222.139 151.890,214.529 157.612 C 202.761 166.462,201.021 167.600,199.259 167.600 C 197.664 167.600,190.201 163.020,182.342 157.218 C 175.664 152.289,176.059 152.175,172.910 159.941 C 171.541 163.319,169.775 168.535,168.987 171.532 C 167.320 177.870,167.742 177.434,162.908 177.797 C 158.840 178.102,150.333 180.615,149.452 181.772 C 148.938 182.447,136.597 186.400,135.003 186.400 C 134.430 186.400,133.412 186.683,132.743 187.029 C 131.096 187.881,131.138 187.986,130.348 181.090 C 128.455 164.573,125.930 142.955,125.411 138.826 C 124.894 134.706,124.411 133.063,120.992 123.800 C 118.881 118.080,116.599 111.780,115.920 109.800 C 107.600 85.510,104.130 77.037,103.076 78.432 C 101.677 80.283,99.479 82.927,98.327 84.147 C 95.702 86.924,95.713 86.625,97.778 99.455 C 99.687 111.319,99.825 111.950,100.158 110.347 C 100.266 109.826,100.500 108.714,100.677 107.876 C 100.855 107.037,101.180 106.345,101.400 106.338 C 101.923 106.319,103.615 111.366,103.743 113.328 C 103.798 114.168,104.038 114.978,104.277 115.128 C 105.054 115.616,106.413 120.722,106.026 121.706 C 105.833 122.198,105.465 123.635,105.209 124.900 C 104.531 128.243,103.810 127.760,102.222 122.900 C 101.473 120.607,100.952 120.257,100.567 121.788 C 100.214 123.197,102.443 133.177,102.860 132.051 C 103.105 131.388,103.993 130.804,104.002 131.300 C 104.003 131.355,104.454 133.920,105.005 137.000 C 105.866 141.812,107.306 148.247,113.390 174.472 C 113.936 176.821,114.482 179.521,114.604 180.472 C 115.725 189.165,117.865 196.322,118.990 195.137 C 119.112 195.007,118.007 185.970,115.793 169.000 C 115.248 164.820,114.797 160.500,114.791 159.400 C 114.760 153.207,112.045 137.045,110.196 132.037 C 109.188 129.307,108.456 126.832,108.569 126.537 C 109.765 123.420,114.815 141.330,114.803 148.645 C 114.801 149.550,115.606 156.327,116.590 163.705 C 117.575 171.082,118.834 180.512,119.387 184.659 C 119.941 188.807,120.502 192.875,120.632 193.700 L 120.870 195.200 123.773 195.200 C 126.168 195.200,126.803 195.340,127.400 196.000 C 128.972 197.737,135.429 196.850,135.796 194.847 C 136.670 190.077,142.223 189.799,143.014 194.485 L 143.291 196.123 150.746 195.864 C 154.846 195.721,160.928 195.486,164.263 195.341 L 170.326 195.078 170.920 193.567 C 172.727 188.966,180.032 188.689,181.992 193.147 L 182.585 194.494 185.392 194.260 C 186.937 194.131,190.145 193.905,192.523 193.757 L 196.846 193.488 198.172 190.856 L 199.499 188.224 200.741 190.683 C 202.300 193.771,201.461 193.469,209.400 193.804 L 216.200 194.091 216.654 192.874 C 218.396 188.211,226.217 188.315,228.186 193.028 L 228.706 194.272 233.853 194.534 C 236.684 194.679,242.806 194.797,247.457 194.798 C 256.465 194.800,256.400 194.814,256.400 192.846 C 256.400 191.810,258.878 189.600,260.041 189.600 C 261.417 189.600,263.437 191.821,263.770 193.700 L 264.036 195.200 267.922 195.200 C 271.374 195.200,271.863 195.111,272.307 194.400 C 272.728 193.726,273.240 193.600,275.568 193.600 L 278.330 193.600 278.560 192.100 C 278.857 190.159,282.056 160.696,283.565 146.000 C 284.704 134.899,284.782 134.465,286.530 129.471 C 288.549 123.699,288.594 123.622,289.410 124.439 C 289.932 124.960,289.789 125.663,288.200 130.401 C 286.050 136.811,285.771 138.770,282.604 169.769 C 280.057 194.697,280.146 193.200,281.200 193.200 C 281.640 193.200,282.000 193.130,282.000 193.044 C 282.000 192.958,283.706 184.493,285.791 174.233 C 289.084 158.029,290.628 150.840,292.454 143.200 C 292.691 142.210,293.270 138.737,293.742 135.483 C 294.565 129.810,295.466 127.572,295.339 131.518 C 295.306 132.553,295.364 132.950,295.468 132.400 C 295.572 131.850,295.914 131.200,296.228 130.956 C 296.543 130.711,297.249 128.307,297.802 125.592 L 298.804 120.672 298.002 119.313 C 297.561 118.566,297.184 117.650,297.164 117.277 C 297.144 116.905,296.794 117.853,296.387 119.384 C 294.587 126.147,293.384 126.766,292.331 121.473 C 291.594 117.771,292.163 113.600,293.405 113.600 C 293.823 113.600,293.918 113.290,293.753 112.466 C 293.624 111.822,293.899 110.052,294.389 108.366 C 294.864 106.735,295.342 105.085,295.453 104.700 C 295.613 104.142,296.800 103.636,296.800 104.127 C 296.800 104.713,297.731 109.087,297.921 109.396 C 298.281 109.979,298.716 108.091,298.749 105.800 C 298.792 102.834,300.904 87.021,301.278 86.867 C 301.751 86.671,301.671 86.018,301.100 85.413 C 300.825 85.122,300.201 84.370,299.712 83.742 C 299.224 83.114,297.830 81.340,296.615 79.800 C 295.399 78.260,294.403 76.865,294.402 76.700 C 294.397 76.059,293.366 76.472,292.707 77.379 M196.200 111.362 C 200.820 112.548,205.410 113.639,206.400 113.786 C 209.777 114.287,220.198 116.886,221.100 117.453 C 222.093 118.077,222.250 119.303,221.564 121.074 C 220.326 124.274,213.650 152.149,213.864 153.222 C 214.209 154.944,213.456 155.600,211.135 155.600 C 209.066 155.600,177.396 147.835,176.500 147.108 C 175.730 146.483,175.876 145.367,177.571 138.911 C 178.435 135.620,179.341 131.773,179.584 130.363 C 179.828 128.954,180.367 126.810,180.784 125.600 C 181.200 124.390,182.198 120.610,183.003 117.200 C 185.213 107.824,184.188 108.278,196.200 111.362 M198.282 131.467 C 197.848 132.169,197.542 134.717,197.867 134.918 C 199.673 136.034,201.151 135.666,201.603 133.989 C 201.853 133.059,201.910 132.155,201.729 131.980 C 201.220 131.489,198.517 131.086,198.282 131.467 M293.300 146.665 C 293.016 146.780,292.818 147.500,292.841 148.333 L 292.882 149.800 293.177 148.565 C 293.339 147.886,293.602 147.121,293.760 146.865 C 294.069 146.365,294.056 146.360,293.300 146.665 M185.927 170.012 C 190.477 171.118,194.846 172.197,195.636 172.410 L 197.072 172.796 196.094 176.498 C 195.556 178.534,195.067 180.253,195.007 180.318 C 194.947 180.382,192.333 179.854,189.198 179.143 C 183.694 177.896,183.479 177.877,182.956 178.593 C 182.430 179.313,182.322 179.313,179.235 178.608 C 174.902 177.618,174.918 177.633,175.511 175.416 C 175.780 174.411,176.000 173.304,176.000 172.956 C 176.000 172.104,177.205 168.000,177.456 168.000 C 177.565 168.000,181.377 168.905,185.927 170.012 M212.665 174.049 C 218.445 176.754,225.712 180.858,225.319 181.194 C 225.144 181.345,221.220 183.587,216.600 186.178 C 211.980 188.768,207.713 191.227,207.119 191.642 L 206.037 192.396 205.919 181.698 C 205.783 169.449,205.698 170.130,207.223 171.217 C 207.865 171.674,210.314 172.948,212.665 174.049 M180.295 180.476 C 185.514 181.749,185.598 181.756,186.164 180.984 C 186.732 180.210,193.023 181.261,194.063 182.304 C 194.570 182.812,192.177 191.012,191.551 190.912 C 189.752 190.624,178.134 187.859,175.700 187.140 C 172.607 186.226,172.443 186.007,173.180 183.760 C 173.390 183.122,173.757 181.835,173.996 180.900 C 174.517 178.862,173.861 178.906,180.295 180.476 M220.217 191.797 C 219.347 192.332,218.355 193.361,218.013 194.085 L 217.392 195.400 202.396 195.504 C 194.148 195.562,186.050 195.652,184.400 195.704 L 181.400 195.800 180.707 194.410 C 180.255 193.505,179.378 192.698,178.193 192.096 L 176.373 191.171 174.715 192.159 C 173.631 192.806,172.771 193.745,172.229 194.874 L 171.400 196.600 166.600 196.846 C 143.752 198.018,141.897 197.906,141.413 195.326 C 140.773 191.917,137.988 192.121,137.397 195.621 C 137.031 197.782,136.640 197.968,131.858 198.261 C 128.016 198.496,127.515 198.447,126.759 197.761 C 126.003 197.075,124.617 196.939,112.660 196.376 L 99.400 195.752 94.443 197.448 C 89.465 199.151,87.386 200.642,85.466 203.887 C 84.999 204.676,86.343 210.455,87.147 211.120 C 87.506 211.417,87.575 211.545,87.300 211.406 C 86.527 211.014,86.695 212.426,87.500 213.086 C 87.885 213.401,87.975 213.545,87.700 213.406 C 87.402 213.255,87.200 213.414,87.200 213.800 C 87.200 214.156,87.371 214.342,87.580 214.212 C 87.947 213.985,88.318 215.602,88.344 217.545 C 88.351 218.065,88.412 218.531,88.479 218.580 C 88.545 218.630,91.300 220.736,94.600 223.262 C 100.474 227.757,111.141 234.791,112.111 234.809 C 112.380 234.814,113.050 235.181,113.600 235.625 C 115.718 237.335,119.030 239.313,122.331 240.838 C 124.222 241.712,125.908 242.646,126.078 242.913 C 126.249 243.181,126.391 237.631,126.394 230.580 C 126.398 221.149,126.527 217.633,126.880 217.280 C 127.578 216.582,274.022 216.582,274.720 217.280 C 275.071 217.631,275.200 220.853,275.200 229.280 C 275.200 235.616,275.294 240.800,275.408 240.800 C 275.873 240.800,282.724 237.162,284.400 236.024 C 285.390 235.353,286.339 234.803,286.510 234.802 C 287.386 234.797,299.411 226.212,305.000 221.602 C 312.305 215.575,311.710 216.594,313.324 207.360 L 314.240 202.121 311.820 199.483 L 309.400 196.846 304.376 195.280 L 299.353 193.714 286.576 194.523 C 275.187 195.244,273.743 195.411,273.277 196.066 C 272.821 196.707,272.157 196.800,268.026 196.800 C 262.794 196.800,262.526 196.684,262.132 194.260 C 262.006 193.484,261.475 192.446,260.952 191.955 L 260.000 191.061 259.000 192.000 C 258.450 192.517,258.000 193.318,258.000 193.781 C 258.000 194.243,257.702 195.048,257.337 195.569 L 256.674 196.515 242.538 196.308 C 227.145 196.081,227.556 196.148,226.536 193.707 C 225.474 191.168,222.637 190.311,220.217 191.797 M277.600 241.800 C 277.050 242.114,276.285 242.378,275.900 242.386 C 275.252 242.399,275.200 243.154,275.200 252.520 C 275.200 263.763,275.239 263.600,272.563 263.600 C 269.548 263.600,269.318 266.556,272.300 266.978 C 273.345 267.126,275.603 267.619,277.318 268.072 C 279.033 268.526,280.528 268.806,280.640 268.694 C 281.439 267.895,281.268 250.164,280.455 249.438 C 279.847 248.896,279.599 248.203,279.597 247.038 C 279.592 244.730,279.135 241.197,278.844 241.214 C 278.710 241.222,278.150 241.486,277.600 241.800 M120.992 246.587 C 120.770 249.837,120.555 250.897,120.063 251.173 C 118.829 251.863,119.533 270.800,120.792 270.800 C 122.651 270.800,130.493 266.397,130.249 265.490 C 130.118 265.000,130.008 264.375,130.005 264.100 C 130.002 263.802,129.466 263.600,128.680 263.600 C 126.432 263.600,126.401 263.464,126.393 253.620 L 126.386 244.600 124.122 243.600 C 122.877 243.050,121.728 242.546,121.569 242.480 C 121.410 242.414,121.150 244.262,120.992 246.587 " stroke="none" fill="#d4dae6" fill-rule="evenodd"></path><path id="path3" d="M198.733 250.743 C 198.660 250.931,196.710 251.572,194.400 252.168 C 186.648 254.166,186.011 254.639,186.002 258.401 C 185.995 261.799,181.398 271.516,178.149 275.004 C 177.737 275.446,176.724 276.648,175.898 277.674 C 173.755 280.336,170.050 282.633,166.657 283.405 L 163.861 284.041 163.030 283.043 C 162.574 282.494,161.804 281.539,161.319 280.922 C 158.378 277.173,152.662 272.233,147.300 268.807 C 146.145 268.069,145.200 267.341,145.200 267.188 C 145.200 267.036,144.075 266.316,142.700 265.588 C 141.325 264.860,140.140 264.115,140.067 263.932 C 139.876 263.458,138.454 263.522,137.883 264.030 C 136.984 264.830,134.226 266.343,125.993 270.551 C 121.479 272.857,117.339 275.113,116.793 275.564 C 110.225 280.980,106.800 288.338,106.800 297.035 C 106.800 298.745,106.631 300.000,106.400 300.000 C 106.154 300.000,106.000 302.000,106.000 305.200 C 106.000 308.400,106.154 310.400,106.400 310.400 C 106.620 310.400,106.800 311.190,106.800 312.155 C 106.800 316.021,109.439 322.982,112.912 328.279 C 113.950 329.862,114.800 331.360,114.800 331.607 C 114.800 331.855,115.025 332.299,115.300 332.594 C 115.575 332.889,116.248 333.731,116.795 334.465 C 120.532 339.481,126.275 344.085,132.216 346.830 C 136.441 348.782,135.329 348.878,144.680 345.756 C 157.784 341.382,165.492 337.091,166.618 333.543 C 166.750 333.128,167.010 332.883,167.196 332.998 C 167.655 333.281,177.990 335.375,183.300 336.260 C 185.665 336.654,187.600 337.116,187.600 337.288 C 187.600 337.460,193.990 337.600,201.800 337.600 C 209.610 337.600,216.000 337.456,216.000 337.280 C 216.000 337.104,217.485 336.745,219.300 336.482 C 222.058 336.082,234.074 333.550,237.617 332.621 C 238.553 332.376,238.709 332.535,239.567 334.607 C 241.583 339.470,241.886 339.637,254.768 342.984 C 273.058 347.736,279.625 345.580,287.009 332.400 C 288.673 329.430,290.205 326.730,290.413 326.400 C 292.543 323.032,292.913 321.781,293.249 316.804 C 293.435 314.052,293.875 309.280,294.227 306.200 C 296.394 287.252,293.222 277.832,282.800 272.262 C 274.150 267.639,259.463 266.585,254.871 270.257 C 250.645 273.637,246.256 278.042,243.114 282.057 C 242.218 283.203,233.506 281.580,229.400 279.502 C 224.224 276.884,220.597 273.161,217.976 267.778 C 216.619 264.991,215.931 262.865,214.640 257.471 C 214.435 256.613,213.918 256.146,212.485 255.525 C 211.448 255.076,209.160 254.034,207.400 253.209 C 205.640 252.385,203.795 251.583,203.300 251.428 C 202.805 251.273,202.400 250.978,202.400 250.773 C 202.400 250.305,198.915 250.276,198.733 250.743 M203.884 256.226 C 205.598 257.010,207.848 258.033,208.885 258.499 C 209.922 258.965,210.871 259.607,210.993 259.927 C 211.231 260.545,209.243 264.358,207.972 265.722 C 207.552 266.173,207.105 266.914,206.977 267.371 C 205.912 271.179,205.367 271.314,202.833 268.400 C 200.303 265.492,200.096 265.475,197.922 268.000 C 195.838 270.421,195.851 270.419,195.222 268.300 C 194.945 267.365,194.397 265.880,194.004 265.000 C 193.063 262.889,191.147 257.517,191.289 257.386 C 191.401 257.282,199.959 254.911,200.484 254.839 C 200.640 254.818,202.170 255.442,203.884 256.226 M191.717 265.400 C 194.055 271.477,194.204 271.993,193.787 272.574 C 186.347 282.942,185.100 286.304,185.099 296.000 C 185.097 315.068,190.325 325.531,198.506 322.831 C 199.742 322.423,200.121 322.487,201.811 323.385 C 206.664 325.966,210.998 323.223,214.428 315.400 C 215.250 313.525,216.429 301.802,216.527 294.530 L 216.591 289.800 213.598 284.000 C 211.952 280.810,209.749 277.065,208.703 275.679 C 207.656 274.292,206.800 272.912,206.800 272.612 C 206.800 272.036,210.002 266.438,211.214 264.894 L 211.925 263.987 212.967 266.694 C 217.152 277.572,225.561 284.465,236.542 286.020 C 237.831 286.202,238.929 286.407,238.983 286.476 C 239.064 286.578,237.516 319.878,237.118 326.590 L 237.000 328.579 230.200 330.083 C 209.674 334.623,194.602 334.607,172.656 330.024 C 170.487 329.571,168.655 329.200,168.585 329.200 C 167.860 329.200,167.230 327.553,167.018 325.106 C 166.576 319.979,165.641 288.209,165.925 287.967 C 166.076 287.839,167.183 287.518,168.383 287.255 C 176.222 285.534,186.449 273.703,189.261 263.102 C 189.875 260.788,189.980 260.886,191.717 265.400 M206.679 276.348 C 208.326 279.071,210.299 282.595,212.415 286.600 L 214.529 290.600 214.479 294.800 C 214.323 307.974,212.902 314.895,209.417 319.459 C 206.854 322.815,205.275 323.120,201.924 320.903 L 200.349 319.860 198.357 320.577 C 192.732 322.599,189.983 318.618,187.766 305.241 C 185.474 291.413,187.951 282.744,197.250 272.054 L 200.155 268.714 202.977 271.805 C 204.530 273.506,206.195 275.550,206.679 276.348 M280.200 282.000 C 280.336 282.220,280.861 282.400,281.367 282.400 C 283.161 282.400,288.800 288.607,288.800 290.582 C 288.800 290.937,289.086 291.664,289.434 292.196 C 289.783 292.729,289.948 293.361,289.800 293.600 C 289.652 293.839,289.761 294.312,290.042 294.651 C 291.015 295.823,289.943 314.027,288.714 317.200 C 288.501 317.750,288.256 318.568,288.170 319.018 C 288.084 319.469,287.562 320.729,287.009 321.818 C 286.456 322.908,286.003 324.025,286.002 324.300 C 286.001 324.575,285.820 324.800,285.600 324.800 C 285.380 324.800,285.200 325.070,285.200 325.400 C 285.200 325.730,285.028 326.000,284.819 326.000 C 284.609 326.000,284.136 326.635,283.768 327.411 C 283.400 328.187,282.671 329.158,282.149 329.568 C 281.627 329.979,281.200 330.413,281.200 330.533 C 281.200 331.503,276.646 334.800,275.306 334.800 C 275.028 334.800,274.800 334.980,274.800 335.200 C 274.800 335.420,274.459 335.600,274.043 335.600 C 273.626 335.600,273.182 335.870,273.055 336.200 C 272.790 336.893,268.400 337.081,268.400 336.400 C 268.400 336.180,268.034 336.000,267.587 336.000 C 267.141 336.000,266.671 335.730,266.545 335.400 C 266.418 335.070,265.884 334.800,265.357 334.800 C 264.831 334.800,264.400 334.633,264.400 334.428 C 264.400 334.224,263.770 333.389,263.000 332.573 C 262.230 331.756,261.600 330.933,261.600 330.744 C 261.600 330.555,261.420 330.400,261.200 330.400 C 260.980 330.400,260.800 330.164,260.800 329.875 C 260.800 329.586,260.419 328.562,259.953 327.598 C 259.488 326.634,259.051 325.565,258.984 325.223 C 258.916 324.880,258.835 324.600,258.804 324.600 C 258.772 324.600,258.667 323.970,258.571 323.200 C 258.475 322.430,258.236 321.332,258.040 320.760 C 257.658 319.645,257.795 311.116,258.232 308.800 C 258.378 308.030,258.483 306.911,258.465 306.313 C 258.448 305.715,258.607 305.120,258.817 304.989 C 259.028 304.859,259.200 304.144,259.200 303.400 C 259.200 302.656,259.360 301.948,259.556 301.827 C 259.751 301.706,260.028 301.111,260.169 300.504 C 260.412 299.467,261.296 297.352,262.053 296.000 C 262.237 295.670,262.717 294.770,263.118 294.000 C 264.211 291.905,264.933 290.742,265.600 290.002 C 267.166 288.266,268.000 287.162,268.000 286.824 C 268.000 284.524,279.058 280.152,280.200 282.000 M124.739 285.147 C 126.375 285.660,129.845 287.847,130.512 288.786 C 130.780 289.164,131.405 289.688,131.900 289.951 C 132.395 290.213,132.800 290.654,132.800 290.931 C 132.800 291.207,133.520 292.095,134.400 292.904 C 135.280 293.713,136.000 294.502,136.000 294.656 C 136.000 294.811,136.276 295.242,136.614 295.616 C 137.348 296.427,140.000 300.780,140.000 301.173 C 140.000 301.325,140.348 302.171,140.774 303.052 C 141.200 303.933,141.675 305.182,141.829 305.827 C 141.984 306.472,142.252 307.182,142.426 307.405 C 143.728 309.080,145.171 324.429,144.177 326.037 C 143.991 326.339,143.803 326.859,143.760 327.193 C 143.667 327.912,142.687 330.513,142.400 330.800 C 142.290 330.910,142.138 331.360,142.061 331.800 C 141.736 333.676,136.841 338.237,136.224 337.239 C 136.117 337.066,134.904 337.095,133.528 337.303 C 131.754 337.571,130.984 337.553,130.880 337.241 C 130.799 336.998,130.118 336.800,129.367 336.800 C 128.512 336.800,128.000 336.605,128.000 336.280 C 128.000 335.995,127.389 335.540,126.642 335.270 C 125.111 334.716,121.147 331.024,120.255 329.321 C 119.932 328.704,119.292 327.935,118.834 327.612 C 118.375 327.288,118.000 326.827,118.000 326.587 C 118.000 326.347,117.650 325.776,117.223 325.317 C 116.292 324.318,114.800 321.610,114.800 320.919 C 114.800 320.649,114.545 319.836,114.233 319.114 C 113.922 318.391,113.398 317.170,113.070 316.400 C 112.416 314.866,111.446 311.036,110.841 307.600 C 109.805 301.717,111.241 291.703,113.463 289.315 C 113.717 289.042,114.147 288.319,114.418 287.709 C 115.544 285.177,120.730 283.890,124.739 285.147 " stroke="none" fill="#acacac" fill-rule="evenodd"></path><path id="path4" d="M195.800 256.080 C 193.380 256.742,191.350 257.329,191.289 257.386 C 191.147 257.517,193.063 262.889,194.004 265.000 C 194.397 265.880,194.945 267.365,195.222 268.300 C 195.851 270.419,195.838 270.421,197.922 268.000 C 200.096 265.475,200.303 265.492,202.833 268.400 C 205.367 271.314,205.912 271.179,206.977 267.371 C 207.105 266.914,207.552 266.173,207.972 265.722 C 209.243 264.358,211.231 260.545,210.993 259.927 C 210.871 259.607,209.922 258.965,208.885 258.499 C 207.848 258.033,205.598 257.010,203.884 256.226 C 202.170 255.442,200.640 254.818,200.484 254.839 C 200.328 254.860,198.220 255.419,195.800 256.080 M197.250 272.054 C 187.951 282.744,185.474 291.413,187.766 305.241 C 189.983 318.618,192.732 322.599,198.357 320.577 L 200.349 319.860 201.924 320.903 C 205.275 323.120,206.854 322.815,209.417 319.459 C 212.902 314.895,214.323 307.974,214.479 294.800 L 214.529 290.600 212.415 286.600 C 210.299 282.595,208.326 279.071,206.679 276.348 C 206.195 275.550,204.530 273.506,202.977 271.805 L 200.155 268.714 197.250 272.054 M270.700 299.781 C 269.875 300.746,269.200 301.651,269.200 301.792 C 269.200 301.933,269.920 301.217,270.800 300.200 C 272.222 298.557,272.624 297.971,272.300 298.013 C 272.245 298.020,271.525 298.816,270.700 299.781 M143.044 311.000 C 143.373 312.471,143.602 312.790,143.594 311.767 C 143.591 311.345,143.405 310.730,143.182 310.400 C 142.885 309.962,142.848 310.124,143.044 311.000 M266.901 312.200 C 266.905 313.080,266.987 313.393,267.083 312.895 C 267.179 312.398,267.175 311.678,267.075 311.295 C 266.975 310.913,266.896 311.320,266.901 312.200 M114.806 315.033 C 114.809 315.455,114.995 316.070,115.218 316.400 C 115.515 316.838,115.552 316.676,115.356 315.800 C 115.027 314.329,114.798 314.010,114.806 315.033 M124.400 326.153 C 124.400 326.238,124.850 326.393,125.400 326.498 C 125.950 326.603,126.400 326.534,126.400 326.345 C 126.400 326.155,125.950 326.000,125.400 326.000 C 124.850 326.000,124.400 326.069,124.400 326.153 " stroke="none" fill="#747474" fill-rule="evenodd"></path><path id="path5" d="M145.600 265.379 C 145.600 265.477,146.635 266.234,147.900 267.061 C 153.657 270.826,158.625 275.087,162.698 279.753 L 164.753 282.107 166.644 281.631 C 169.802 280.836,176.000 276.459,176.000 275.025 C 176.000 274.749,176.379 274.181,176.843 273.762 C 177.652 273.031,181.171 267.350,181.713 265.900 C 181.960 265.240,180.942 265.200,163.787 265.200 C 153.784 265.200,145.600 265.280,145.600 265.379 M218.800 265.444 C 218.800 266.535,221.898 271.102,224.198 273.402 C 228.257 277.461,233.453 279.881,239.600 280.575 L 241.800 280.824 244.400 277.788 C 252.081 268.820,255.540 266.794,263.359 266.683 C 268.617 266.608,269.195 266.531,269.197 265.900 C 269.200 265.241,267.734 265.200,244.000 265.200 C 230.140 265.200,218.800 265.310,218.800 265.444 M231.400 335.846 C 218.943 338.629,217.228 338.800,201.719 338.800 L 187.638 338.800 180.119 337.414 C 175.983 336.652,171.536 335.812,170.237 335.546 L 167.873 335.064 166.939 336.232 C 165.650 337.843,165.569 337.776,169.700 338.515 C 175.698 339.588,178.710 339.955,183.900 340.246 C 186.595 340.397,188.800 340.673,188.800 340.860 C 188.800 341.047,193.120 341.200,198.400 341.200 C 204.533 341.200,208.000 341.056,208.000 340.800 C 208.000 340.572,209.186 340.400,210.757 340.400 C 216.469 340.400,231.362 338.407,236.307 336.981 C 238.335 336.396,238.631 335.767,237.446 334.553 C 237.421 334.527,234.700 335.109,231.400 335.846 " stroke="none" fill="#dbc3ab" fill-rule="evenodd"></path></g></svg>