<svg width="118" height="135" viewBox="0 0 118 135" fill="none" xmlns="http://www.w3.org/2000/svg">
<path d="M0 95C0 95 24 107 59 107C94 107 118 95 118 95V109.5V122C118 122 94 134.5 59 134.5C24 134.5 0 122 0 122V109.5V95Z" fill="white"/>
<path d="M0 61C0 61 24 73 59 73C94 73 118 61 118 61V75.5V88C118 88 94 100.5 59 100.5C24 100.5 0 88 0 88V75.5V61Z" fill="white"/>
<path d="M0 25C0 25 15 40 59 40C103 40 118 25 118 25V42.5V55C118 55 94 67.5 59 67.5C24 67.5 0 55 0 55V42.5V25Z" fill="white"/>
<path d="M118 16C118 24.8366 91.5848 34.5 59 34.5C26.4152 34.5 0 24.8366 0 16C0 7.16344 26.4152 0 59 0C91.5848 0 118 7.16344 118 16Z" fill="white"/>
<circle cx="112" cy="46" r="4" fill="#848484"/>
<circle cx="112" cy="81" r="4" fill="#848484"/>
<circle cx="112" cy="115" r="4" fill="#848484"/>
</svg>
