<svg width="118" height="153" viewBox="0 0 118 153" fill="none" xmlns="http://www.w3.org/2000/svg">
<path d="M23.3747 107.017V110.678L24.7828 110.396L26.1909 108.706L29.0072 110.678H30.8377L36.8926 116.592L40.2721 118L44.9188 115.325L49.8472 110.115L50.6921 107.017H23.3747Z" fill="#DBC3AB"/>
<path d="M94.3437 107.017V110.678L92.9356 110.396L91.5275 108.706L88.7112 110.678H86.8807L80.8258 116.592L77.4463 118L72.7995 115.325L67.8711 110.115L67.0263 107.017H94.3437Z" fill="#DBC3AB"/>
<path fill-rule="evenodd" clip-rule="evenodd" d="M36.4702 116.874L40.4129 118.422L45.3413 115.747L50.1289 110.396L52.3818 102.511L58.8592 100.117L65.3365 102.511L67.5895 110.396L72.6587 115.747L77.1647 118.422L81.1074 116.874L78.7136 120.675L76.4606 128.702L76.0382 135.32L78.2912 143.909L66.6038 146.585L62.9427 146.162H54.6348L50.9737 146.585L39.4272 143.909L41.6802 135.32L41.2577 128.702L38.8639 120.675L36.4702 116.874ZM50.9737 133.489L55.3389 142.642H62.2387L66.6038 133.489L67.5895 120.675L62.9427 114.057L61.3938 110.396L58.7184 107.721L56.3246 110.396L54.6348 114.057L50.1289 120.675L50.9737 133.489Z" fill="#222222"/>
<path d="M50.9737 133.63L55.3389 142.642H62.2386L66.7446 133.63L67.5895 120.675L63.0835 114.198L61.3938 110.396L58.7183 107.721L56.3246 110.396L54.6348 114.198L49.988 120.675L50.9737 133.63Z" fill="#D1D1D1"/>
<path d="M81.1074 116.874L87.1623 111.241H88.852L91.3866 109.27L92.6539 111.1L101.384 112.368L96.5966 112.79L92.3723 116.874L88.5704 122.788L86.1766 130.955V140.107L87.3031 146.866L90.4009 150.809L81.389 147.852L78.2911 143.909L76.0381 135.32L76.4606 128.702L78.7136 120.675L81.1074 116.874Z" fill="#828080"/>
<path d="M90.4009 150.809L94.9069 152.358L99.272 150.527L104.623 145.036L107.157 140.107L108.988 133.348L109.27 126.308L108.706 123.069L107.58 119.267L104.482 114.198L101.384 112.368L96.5966 112.79L92.3723 116.874L88.5704 122.788L86.1766 130.955V140.107L87.3031 146.866L90.4009 150.809Z" fill="#B5B4B4"/>
<path d="M92.544 145.613L95.7311 146.726L98.8187 145.411L102.603 141.466L104.396 137.926L105.691 133.071L105.89 128.013L105.492 125.687L104.695 122.956L102.504 119.315L100.313 118L96.9263 118.303L93.9384 121.237L91.2492 125.485L89.556 131.351V137.926L90.3528 142.781L92.544 145.613Z" fill="#EFD923"/>
<path d="M36.611 116.874L30.5561 111.241H28.8663L26.3317 109.27L25.0644 111.1L16.3341 112.368L21.1217 112.79L25.346 116.874L29.148 122.788L31.5418 130.955V140.107L30.4153 146.866L27.3174 150.809L36.3293 147.852L39.4272 143.909L41.6802 135.32L41.2577 128.702L39.0048 120.675L36.611 116.874Z" fill="#828080"/>
<path d="M27.3174 150.809L22.8114 152.358L18.4463 150.527L13.0954 145.036L10.5608 140.107L8.73029 133.348L8.44867 126.308L9.01192 123.069L10.1384 119.267L13.2363 114.198L16.3341 112.368L21.1217 112.79L25.346 116.874L29.148 122.788L31.5417 130.955V140.107L30.4153 146.866L27.3174 150.809Z" fill="#B5B4B4"/>
<path d="M25.1743 145.613L21.9871 146.726L18.8996 145.411L15.1148 141.466L13.3221 137.926L12.0273 133.071L11.8281 128.013L12.2265 125.687L13.0233 122.956L15.2144 119.315L17.4056 118L20.792 118.303L23.7799 121.237L26.4691 125.485L28.1622 131.351V137.926L27.3654 142.781L25.1743 145.613Z" fill="#EFD923"/>
<path d="M97.7232 106.453H68.1527L66.3222 100.117L58.8592 97.7231L51.6778 100.117L49.5656 106.453H20.5585V77.7279H97.7232V106.453Z" fill="black"/>
<path d="M0.563246 81.2482L0 77.8687L5.35084 70.8282L19.1504 67.8711L58.8592 63.6468L98.568 68.0119L112.649 70.8282L118 78.2912L117.014 81.2482L113.776 76.8831L98.568 74.0668L58.8592 70.6874L19.5728 74.0668L3.80191 76.8831L0.563246 81.2482Z" fill="#8B99BD" fill-opacity="0.937255"/>
<path d="M18.8687 100.68L10.2792 94.3437L3.37946 88.148L0.563232 81.2482L3.8019 76.8831L19.7136 74.0669L58.8592 70.6874L98.568 74.0669L113.776 76.8831L117.014 81.2482L113.776 88.148L107.158 94.3437L99.5537 100.68V95.3294L101.525 91.105L102.229 85.6134L98.568 81.9523V76.8831H19.7136V82.0931L15.4892 84.7685L16.0525 90.6826L18.8687 95.7518V100.68Z" fill="#445175" fill-opacity="0.74902"/>
<path fill-rule="evenodd" clip-rule="evenodd" d="M24.2196 65.3365L22.2482 62.8019L21.9666 33.5131L25.6277 25.9093L25.9093 16.6158L31.8234 11.2649L30.9785 17.7422L32.105 18.8687L43.9332 14.926L44.2148 4.22434L58.296 0L72.7995 4.22434L73.222 14.926L84.7685 18.8687L86.3175 17.7422L85.6134 11.2649L91.105 16.6158L91.6683 25.9093L95.611 33.5131L94.3437 62.8019L92.3723 65.3365L82.938 59.1408L75.7566 57.4511L71.2506 46.7494H69.8425L58.296 54.494L46.8902 46.7494H45.3413L40.8354 57.4511L33.5132 59.1408L24.2196 65.3365ZM64.9141 47.5943L48.1575 43.2291L53.0859 25.9093L69.8425 30.2745L64.9141 47.5943Z" fill="#BEC9DF"/>
<path d="M20.8401 32.6683L21.9666 33.5131L25.6277 25.9093L25.9093 16.6158L27.0358 15.6301L25.6277 14.926L22.2482 23.0931L20.8401 32.6683Z" fill="#FBD300"/>
<path d="M43.9332 1.97137L32.3866 7.04059L30.9785 17.7423L32.105 18.8687L43.9332 14.926L44.2148 4.22436L45.0597 3.66111L43.9332 1.97137Z" fill="#FBD300"/>
<path d="M84.7685 18.8687L73.222 14.926L72.7995 4.22436V3.66111L73.5036 1.97137L85.1909 7.04059L86.3174 17.7423L84.7685 18.8687Z" fill="#FBD300"/>
<path d="M91.6683 25.9093L91.105 16.6158L90.2601 15.7709L92.0907 14.926L95.4702 23.0931L96.8783 32.6683L95.3293 32.9499L91.6683 25.9093Z" fill="#FBD300"/>
<path d="M17.179 67.8711L16.0525 68.1528L11.5465 44.7781L11.8282 41.6802V35.7661L9.57518 29.5704L7.60382 22.2482V21.1217L11.4057 17.179L20.5585 41.3986L21.8258 56.043L21.9666 63.0836L24.2196 65.6182L33.7948 59.4225L41.1169 57.7327L45.4821 47.031H46.8902L58.2959 54.7757L70.1241 47.031H70.969L75.4749 57.7327L82.7971 59.4225L92.3723 65.6182L94.6253 63.0836L97.1599 41.3986L106.313 17.179L110.115 21.1217L108.143 29.5704L105.89 35.7661V41.6802L106.172 44.7781L101.666 68.1528L100.821 67.5895H99.9761L92.3723 66.8855L68.4344 64.21L72.3771 60.8306L62.2387 54.6349V63.506L58.8592 63.0836L55.4797 63.6468L56.8878 60.8306L58.4368 56.043L46.8902 53.0859L43.7924 63.7876L46.6086 64.6325L24.2196 66.8855L17.7422 67.8711H17.179Z" fill="#C6C4B9"/>
<path d="M15.2077 68.1527L11.2649 46.4678L11.5466 44.778L16.0525 68.1527H15.2077Z" fill="#FBD300"/>
<path d="M17.179 67.8711H17.7423L14.926 43.9332L12.9547 38.3007L12.3914 39.1456L14.0812 44.778L17.179 67.8711Z" fill="#FBD300"/>
<path d="M44.2148 63.6468L47.3127 64.4916L54.9165 63.6468L56.3246 61.3938L51.8186 60.2673L51.537 61.1122L45.2005 59.704L44.2148 63.6468Z" fill="#FBD300"/>
<path d="M47.0311 53.5083L58.0143 56.3246L56.6062 60.5489L50.1289 58.7184L49.8473 59.704L45.4821 58.7184L47.0311 53.5083Z" fill="#FBD300"/>
<path d="M62.5203 55.1981L71.9547 60.8305L67.8711 64.21L62.5203 63.6468V55.1981Z" fill="#FBD300"/>
<path fill-rule="evenodd" clip-rule="evenodd" d="M53.3676 26.3317L69.2793 30.5561L64.6325 47.1718L48.58 42.9475L53.3676 26.3317ZM61.253 35.062L58.1552 34.2172L57.1695 37.5966L60.4081 38.4415L61.253 35.062Z" fill="#FBD300"/>
<path d="M100.821 67.5895L103.637 44.778L105.327 39.1456L104.764 38.3007L102.792 43.9332L99.9762 67.5895H100.821Z" fill="#FBD300"/>
<path d="M102.511 68.1527L106.453 46.4678L106.172 44.778L101.666 68.1527H102.511Z" fill="#FBD300"/>
<path d="M105.89 41.6802L108.425 35.7661L108.143 29.5704L105.89 35.7661V41.6802Z" fill="#FBD300"/>
<path d="M9.29358 35.6253L11.8282 41.6802V35.7661L9.5752 29.5704L9.29358 35.6253Z" fill="#FBD300"/>
</svg>
