<svg width="684" height="153" viewBox="0 0 684 153" fill="none" xmlns="http://www.w3.org/2000/svg">
<path d="M23.3747 107.017V110.678L24.7828 110.396L26.1909 108.706L29.0072 110.678H30.8377L36.8926 116.592L40.2721 118L44.9188 115.325L49.8472 110.115L50.6921 107.017H23.3747Z" fill="#DBC3AB"/>
<path d="M94.3437 107.017V110.678L92.9356 110.396L91.5275 108.706L88.7112 110.678H86.8807L80.8258 116.592L77.4463 118L72.7995 115.325L67.8711 110.115L67.0263 107.017H94.3437Z" fill="#DBC3AB"/>
<path fill-rule="evenodd" clip-rule="evenodd" d="M36.4702 116.874L40.4129 118.422L45.3413 115.747L50.1289 110.396L52.3818 102.511L58.8592 100.117L65.3365 102.511L67.5895 110.396L72.6587 115.747L77.1647 118.422L81.1074 116.874L78.7136 120.675L76.4606 128.702L76.0382 135.32L78.2912 143.909L66.6038 146.585L62.9427 146.162H54.6348L50.9737 146.585L39.4272 143.909L41.6802 135.32L41.2577 128.702L38.8639 120.675L36.4702 116.874ZM50.9737 133.489L55.3389 142.642H62.2387L66.6038 133.489L67.5895 120.675L62.9427 114.057L61.3938 110.396L58.7184 107.721L56.3246 110.396L54.6348 114.057L50.1289 120.675L50.9737 133.489Z" fill="#222222"/>
<path d="M50.9737 133.63L55.3389 142.642H62.2387L66.7446 133.63L67.5895 120.675L63.0835 114.198L61.3938 110.396L58.7184 107.721L56.3246 110.396L54.6348 114.198L49.9881 120.675L50.9737 133.63Z" fill="#D1D1D1"/>
<path d="M81.1074 116.874L87.1623 111.241H88.852L91.3866 109.27L92.6539 111.1L101.384 112.368L96.5967 112.79L92.3723 116.874L88.5704 122.788L86.1766 130.955V140.107L87.3031 146.866L90.4009 150.809L81.389 147.852L78.2912 143.909L76.0382 135.32L76.4606 128.702L78.7136 120.675L81.1074 116.874Z" fill="#828080"/>
<path d="M90.4009 150.809L94.9069 152.358L99.2721 150.527L104.623 145.036L107.158 140.107L108.988 133.348L109.27 126.308L108.706 123.069L107.58 119.267L104.482 114.198L101.384 112.368L96.5967 112.79L92.3723 116.874L88.5704 122.788L86.1766 130.955V140.107L87.3031 146.866L90.4009 150.809Z" fill="#B5B4B4"/>
<path d="M92.544 145.613L95.7312 146.726L98.8187 145.411L102.603 141.466L104.396 137.926L105.691 133.071L105.89 128.013L105.492 125.687L104.695 122.956L102.504 119.315L100.313 118L96.9264 118.303L93.9384 121.237L91.2493 125.485L89.5561 131.351V137.926L90.3529 142.781L92.544 145.613Z" fill="#EFD923"/>
<path d="M36.611 116.874L30.5561 111.241H28.8663L26.3317 109.27L25.0644 111.1L16.3341 112.368L21.1217 112.79L25.346 116.874L29.148 122.788L31.5418 130.955V140.107L30.4153 146.866L27.3174 150.809L36.3293 147.852L39.4272 143.909L41.6802 135.32L41.2577 128.702L39.0048 120.675L36.611 116.874Z" fill="#828080"/>
<path d="M27.3174 150.809L22.8115 152.358L18.4463 150.527L13.0955 145.036L10.5609 140.107L8.73032 133.348L8.4487 126.308L9.01195 123.069L10.1384 119.267L13.2363 114.198L16.3341 112.368L21.1217 112.79L25.3461 116.874L29.148 122.788L31.5418 130.955V140.107L30.4153 146.866L27.3174 150.809Z" fill="#B5B4B4"/>
<path d="M25.1743 145.613L21.9872 146.726L18.8996 145.411L15.1149 141.466L13.3221 137.926L12.0274 133.071L11.8282 128.013L12.2266 125.687L13.0233 122.956L15.2145 119.315L17.4057 118L20.792 118.303L23.78 121.237L26.4691 125.485L28.1623 131.351V137.926L27.3655 142.781L25.1743 145.613Z" fill="#EFD923"/>
<path d="M97.7232 106.453H68.1527L66.3222 100.117L58.8592 97.7231L51.6778 100.117L49.5656 106.453H20.5585V77.7279H97.7232V106.453Z" fill="black"/>
<path d="M0.563246 81.2482L0 77.8687L5.35084 70.8282L19.1504 67.8711L58.8592 63.6468L98.568 68.0119L112.649 70.8282L118 78.2912L117.014 81.2482L113.776 76.8831L98.568 74.0668L58.8592 70.6874L19.5728 74.0668L3.80191 76.8831L0.563246 81.2482Z" fill="#8B99BD" fill-opacity="0.937255"/>
<path d="M18.8687 100.68L10.2792 94.3437L3.37946 88.148L0.563232 81.2482L3.8019 76.8831L19.7136 74.0669L58.8592 70.6874L98.568 74.0669L113.776 76.8831L117.014 81.2482L113.776 88.148L107.158 94.3437L99.5537 100.68V95.3294L101.525 91.105L102.229 85.6134L98.568 81.9523V76.8831H19.7136V82.0931L15.4892 84.7685L16.0525 90.6826L18.8687 95.7518V100.68Z" fill="#445175" fill-opacity="0.74902"/>
<path fill-rule="evenodd" clip-rule="evenodd" d="M24.2196 65.3365L22.2482 62.8019L21.9666 33.5131L25.6277 25.9093L25.9093 16.6158L31.8234 11.2649L30.9785 17.7422L32.105 18.8687L43.9332 14.926L44.2148 4.22434L58.2959 0L72.7995 4.22434L73.222 14.926L84.7685 18.8687L86.3174 17.7422L85.6134 11.2649L91.105 16.6158L91.6683 25.9093L95.611 33.5131L94.3437 62.8019L92.3723 65.3365L82.9379 59.1408L75.7566 57.4511L71.2506 46.7494H69.8425L58.2959 54.494L46.8902 46.7494H45.3413L40.8353 57.4511L33.5131 59.1408L24.2196 65.3365ZM64.9141 47.5943L48.1575 43.2291L53.0859 25.9093L69.8425 30.2745L64.9141 47.5943Z" fill="#BEC9DF"/>
<path d="M20.8401 32.6683L21.9666 33.5131L25.6277 25.9093L25.9093 16.6158L27.0358 15.6301L25.6277 14.926L22.2482 23.0931L20.8401 32.6683Z" fill="#FBD300"/>
<path d="M43.9332 1.97137L32.3866 7.04059L30.9785 17.7423L32.105 18.8687L43.9332 14.926L44.2148 4.22436L45.0597 3.66111L43.9332 1.97137Z" fill="#FBD300"/>
<path d="M84.7685 18.8687L73.222 14.926L72.7995 4.22436V3.66111L73.5036 1.97137L85.1909 7.04059L86.3174 17.7423L84.7685 18.8687Z" fill="#FBD300"/>
<path d="M91.6683 25.9093L91.105 16.6158L90.2601 15.7709L92.0907 14.926L95.4702 23.0931L96.8783 32.6683L95.3293 32.9499L91.6683 25.9093Z" fill="#FBD300"/>
<path d="M17.179 67.8711L16.0525 68.1528L11.5465 44.7781L11.8282 41.6802V35.7661L9.57518 29.5704L7.60382 22.2482V21.1217L11.4057 17.179L20.5585 41.3986L21.8258 56.043L21.9666 63.0836L24.2196 65.6182L33.7948 59.4225L41.1169 57.7327L45.4821 47.031H46.8902L58.2959 54.7757L70.1241 47.031H70.969L75.4749 57.7327L82.7971 59.4225L92.3723 65.6182L94.6253 63.0836L97.1599 41.3986L106.313 17.179L110.115 21.1217L108.143 29.5704L105.89 35.7661V41.6802L106.172 44.7781L101.666 68.1528L100.821 67.5895H99.9761L92.3723 66.8855L68.4344 64.21L72.3771 60.8306L62.2387 54.6349V63.506L58.8592 63.0836L55.4797 63.6468L56.8878 60.8306L58.4368 56.043L46.8902 53.0859L43.7924 63.7876L46.6086 64.6325L24.2196 66.8855L17.7422 67.8711H17.179Z" fill="#C6C4B9"/>
<path d="M15.2076 68.1527L11.2649 46.4678L11.5465 44.778L16.0525 68.1527H15.2076Z" fill="#FBD300"/>
<path d="M17.179 67.8711H17.7422L14.926 43.9332L12.9546 38.3007L12.3914 39.1456L14.0811 44.778L17.179 67.8711Z" fill="#FBD300"/>
<path d="M44.2148 63.6468L47.3126 64.4916L54.9165 63.6468L56.3246 61.3938L51.8186 60.2673L51.537 61.1122L45.2005 59.704L44.2148 63.6468Z" fill="#FBD300"/>
<path d="M47.031 53.5083L58.0143 56.3246L56.6062 60.5489L50.1289 58.7184L49.8472 59.704L45.4821 58.7184L47.031 53.5083Z" fill="#FBD300"/>
<path d="M62.5203 55.1981L71.9546 60.8305L67.8711 64.21L62.5203 63.6468V55.1981Z" fill="#FBD300"/>
<path fill-rule="evenodd" clip-rule="evenodd" d="M53.3675 26.3317L69.2792 30.5561L64.6325 47.1718L48.5799 42.9475L53.3675 26.3317ZM61.253 35.062L58.1551 34.2172L57.1694 37.5966L60.4081 38.4415L61.253 35.062Z" fill="#FBD300"/>
<path d="M100.821 67.5895L103.637 44.778L105.327 39.1456L104.764 38.3007L102.792 43.9332L99.9761 67.5895H100.821Z" fill="#FBD300"/>
<path d="M102.511 68.1527L106.453 46.4678L106.172 44.778L101.666 68.1527H102.511Z" fill="#FBD300"/>
<path d="M105.89 41.6802L108.425 35.7661L108.143 29.5704L105.89 35.7661V41.6802Z" fill="#FBD300"/>
<path d="M9.29355 35.6253L11.8282 41.6802V35.7661L9.57517 29.5704L9.29355 35.6253Z" fill="#FBD300"/>
<path d="M241.409 90.5295C241.187 95.3538 239.885 99.6226 237.505 103.336C235.125 107.018 231.776 109.874 227.46 111.905C223.175 113.937 218.272 114.952 212.749 114.952C203.64 114.952 196.467 111.985 191.231 106.05C185.994 100.115 183.375 91.7356 183.375 80.9128V77.4851C183.375 70.6931 184.55 64.7581 186.898 59.6799C189.279 54.5701 192.691 50.6345 197.134 47.8733C201.577 45.0803 206.719 43.6838 212.559 43.6838C220.969 43.6838 227.73 45.9055 232.839 50.3489C237.949 54.7605 240.853 60.8542 241.552 68.6301H224.889C224.762 64.4089 223.699 61.3779 221.699 59.5371C219.7 57.6963 216.653 56.7759 212.559 56.7759C208.401 56.7759 205.354 58.3311 203.418 61.4414C201.482 64.5518 200.466 69.5188 200.371 76.3425V81.2461C200.371 88.6411 201.292 93.9255 203.132 97.0994C205.005 100.273 208.211 101.86 212.749 101.86C216.589 101.86 219.525 100.956 221.556 99.1465C223.588 97.3374 224.667 94.4651 224.794 90.5295H241.409ZM246.55 87.7683C246.55 82.6267 247.55 78.0564 249.55 74.0574C251.549 70.0266 254.421 66.9321 258.167 64.7739C261.912 62.6157 266.307 61.5366 271.354 61.5366C279.066 61.5366 285.144 63.9329 289.587 68.7253C294.031 73.4861 296.253 79.9766 296.253 88.1968V88.7681C296.253 96.7979 294.015 103.177 289.54 107.906C285.097 112.604 279.066 114.952 271.449 114.952C264.118 114.952 258.23 112.762 253.787 108.382C249.343 103.971 246.947 98.0039 246.598 90.4819L246.55 87.7683ZM262.594 88.7681C262.594 93.5288 263.34 97.02 264.832 99.2417C266.323 101.463 268.529 102.574 271.449 102.574C277.162 102.574 280.082 98.1785 280.209 89.387V87.7683C280.209 78.5325 277.257 73.9146 271.354 73.9146C265.99 73.9146 263.086 77.8977 262.642 85.864L262.594 88.7681ZM301.299 87.8635C301.299 79.7068 303.06 73.2798 306.583 68.5825C310.106 63.8853 315.026 61.5366 321.342 61.5366C325.944 61.5366 329.816 63.3457 332.958 66.9639V40.875H349.049V114H334.624L333.815 108.478C330.514 112.794 326.325 114.952 321.246 114.952C315.121 114.952 310.265 112.604 306.679 107.906C303.092 103.209 301.299 96.5281 301.299 87.8635ZM317.343 88.8633C317.343 98.0039 320.009 102.574 325.341 102.574C328.895 102.574 331.434 101.083 332.958 98.0991V78.4849C331.498 75.438 328.991 73.9146 325.436 73.9146C320.485 73.9146 317.803 77.9136 317.39 85.9116L317.343 88.8633ZM383.088 114.952C375.186 114.952 368.79 112.604 363.903 107.906C359.015 103.177 356.571 97.0359 356.571 89.4822V88.1492C356.571 82.8806 357.539 78.231 359.475 74.2002C361.443 70.1694 364.299 67.0591 368.045 64.8691C371.79 62.6475 376.233 61.5366 381.375 61.5366C388.611 61.5366 394.324 63.79 398.513 68.2969C402.703 72.772 404.797 79.0244 404.797 87.0542V93.2908H372.9C373.472 96.179 374.725 98.4482 376.661 100.099C378.598 101.749 381.105 102.574 384.183 102.574C389.262 102.574 393.229 100.797 396.085 97.2422L403.417 105.907C401.417 108.668 398.577 110.874 394.895 112.524C391.245 114.143 387.31 114.952 383.088 114.952ZM381.279 73.9146C376.582 73.9146 373.789 77.0249 372.9 83.2456H389.087V82.0078C389.15 79.437 388.5 77.4534 387.135 76.0569C385.77 74.6287 383.818 73.9146 381.279 73.9146ZM409.273 87.8635C409.273 79.7068 411.034 73.2798 414.557 68.5825C418.08 63.8853 422.999 61.5366 429.315 61.5366C433.917 61.5366 437.789 63.3457 440.931 66.9639V40.875H457.023V114H442.598L441.788 108.478C438.488 112.794 434.298 114.952 429.22 114.952C423.095 114.952 418.239 112.604 414.652 107.906C411.066 103.209 409.273 96.5281 409.273 87.8635ZM425.316 88.8633C425.316 98.0039 427.982 102.574 433.314 102.574C436.869 102.574 439.408 101.083 440.931 98.0991V78.4849C439.472 75.438 436.964 73.9146 433.41 73.9146C428.458 73.9146 425.776 77.9136 425.364 85.9116L425.316 88.8633ZM509.867 84.6262H483.588V101.146H514.628V114H466.878V44.6836H514.723V57.5852H483.588V72.2007H509.867V84.6262ZM551.857 77.009L546.572 76.6282C541.526 76.6282 538.289 78.2151 536.86 81.3889V114H520.817V62.4888H535.861L536.384 69.1062C539.082 64.0598 542.843 61.5366 547.667 61.5366C549.381 61.5366 550.873 61.7271 552.142 62.1079L551.857 77.009ZM588.8 77.009L583.516 76.6282C578.469 76.6282 575.232 78.2151 573.804 81.3889V114H557.76V62.4888H572.804L573.328 69.1062C576.025 64.0598 579.786 61.5366 584.611 61.5366C586.325 61.5366 587.816 61.7271 589.086 62.1079L588.8 77.009ZM590.847 87.7683C590.847 82.6267 591.847 78.0564 593.847 74.0574C595.846 70.0266 598.718 66.9321 602.463 64.7739C606.209 62.6157 610.604 61.5366 615.651 61.5366C623.363 61.5366 629.441 63.9329 633.884 68.7253C638.328 73.4861 640.549 79.9766 640.549 88.1968V88.7681C640.549 96.7979 638.312 103.177 633.837 107.906C629.393 112.604 623.363 114.952 615.746 114.952C608.414 114.952 602.527 112.762 598.084 108.382C593.64 103.971 591.244 98.0039 590.895 90.4819L590.847 87.7683ZM606.891 88.7681C606.891 93.5288 607.637 97.02 609.129 99.2417C610.62 101.463 612.826 102.574 615.746 102.574C621.459 102.574 624.379 98.1785 624.506 89.387V87.7683C624.506 78.5325 621.554 73.9146 615.651 73.9146C610.287 73.9146 607.383 77.8977 606.939 85.864L606.891 88.7681ZM678.778 77.009L673.494 76.6282C668.447 76.6282 665.21 78.2151 663.782 81.3889V114H647.738V62.4888H662.782L663.306 69.1062C666.004 64.0598 669.764 61.5366 674.589 61.5366C676.303 61.5366 677.794 61.7271 679.064 62.1079L678.778 77.009Z" fill="white"/>
</svg>
