<?xml version="1.0" encoding="UTF-8" standalone="no"?>
<svg
   id="svg"
   version="1.1"
   width="400"
   height="400"
   viewBox="0, 0, 400,400"
   sodipodi:docname="discord_cutout.svg"
   inkscape:version="1.1 (c68e22c387, 2021-05-23)"
   xmlns:inkscape="http://www.inkscape.org/namespaces/inkscape"
   xmlns:sodipodi="http://sodipodi.sourceforge.net/DTD/sodipodi-0.dtd"
   xmlns="http://www.w3.org/2000/svg"
   xmlns:svg="http://www.w3.org/2000/svg">
  <defs
     id="defs2196" />
  <sodipodi:namedview
     id="namedview2194"
     pagecolor="#ffffff"
     bordercolor="#666666"
     borderopacity="1.0"
     inkscape:pageshadow="2"
     inkscape:pageopacity="0.0"
     inkscape:pagecheckerboard="0"
     showgrid="false"
     inkscape:zoom="1.32"
     inkscape:cx="199.62121"
     inkscape:cy="200.37879"
     inkscape:window-width="1366"
     inkscape:window-height="713"
     inkscape:window-x="-8"
     inkscape:window-y="-8"
     inkscape:window-maximized="1"
     inkscape:current-layer="svg" />
  <g
     id="svgg"
     style="fill:#5865f2;fill-opacity:1">
    <path
       id="path0"
       d="M151.200 77.861 C 150.650 77.945,149.570 78.199,148.800 78.426 C 148.030 78.653,145.510 79.184,143.200 79.606 C 138.915 80.388,135.303 81.243,132.800 82.067 C 132.030 82.320,130.050 82.843,128.400 83.228 C 126.750 83.614,124.860 84.117,124.200 84.348 C 121.915 85.147,118.988 86.049,116.284 86.787 C 114.790 87.195,113.350 87.701,113.084 87.912 C 112.818 88.123,111.610 88.525,110.400 88.807 C 109.190 89.088,107.573 89.651,106.806 90.059 C 106.039 90.467,105.134 90.800,104.795 90.800 C 104.456 90.800,103.823 91.043,103.389 91.340 C 102.955 91.637,102.060 92.008,101.400 92.164 C 100.740 92.320,99.480 92.776,98.600 93.179 C 93.810 95.370,92.508 95.932,91.600 96.200 C 91.050 96.362,90.330 96.722,90.000 97.000 C 89.670 97.278,89.003 97.626,88.518 97.774 C 88.033 97.921,87.223 98.743,86.718 99.600 C 86.213 100.456,85.260 101.985,84.600 102.996 C 80.713 108.954,79.844 110.347,77.730 114.014 C 72.172 123.654,72.215 123.575,67.245 133.501 C 62.433 143.112,61.200 145.688,61.200 146.131 C 61.200 146.461,59.540 150.244,58.624 152.000 C 58.338 152.550,57.873 153.720,57.591 154.600 C 57.309 155.480,56.854 156.560,56.579 157.000 C 56.304 157.440,55.947 158.427,55.787 159.194 C 55.626 159.961,55.262 160.951,54.978 161.394 C 54.694 161.837,54.187 163.190,53.852 164.400 C 53.068 167.235,52.108 170.136,51.205 172.400 C 50.810 173.390,50.368 174.830,50.222 175.600 C 50.076 176.370,49.711 177.630,49.409 178.400 C 48.824 179.896,47.541 184.892,46.613 189.283 C 46.302 190.758,45.878 192.288,45.672 192.683 C 45.466 193.077,45.074 195.020,44.801 197.000 C 44.528 198.980,44.071 201.320,43.786 202.200 C 43.500 203.080,43.058 205.510,42.804 207.600 C 42.549 209.690,42.162 211.940,41.945 212.600 C 40.809 216.039,39.291 238.671,39.288 252.200 C 39.285 272.971,40.331 281.775,42.966 283.174 C 43.425 283.418,44.430 284.066,45.200 284.615 C 46.762 285.728,47.321 286.109,48.860 287.110 C 49.443 287.490,50.973 288.502,52.260 289.361 C 53.547 290.219,55.320 291.389,56.200 291.960 C 57.080 292.531,57.890 293.099,58.000 293.222 C 58.110 293.346,59.370 294.121,60.800 294.945 C 62.230 295.769,65.020 297.421,67.000 298.616 C 68.980 299.811,70.942 300.909,71.361 301.057 C 72.450 301.441,76.490 303.601,77.200 304.180 C 77.530 304.448,78.430 304.908,79.200 305.200 C 79.970 305.492,80.870 305.949,81.200 306.215 C 81.530 306.481,82.445 306.906,83.233 307.158 C 84.021 307.411,85.821 308.217,87.233 308.950 C 88.645 309.683,90.459 310.498,91.265 310.761 C 92.070 311.024,93.780 311.785,95.065 312.453 C 96.349 313.121,98.286 313.939,99.369 314.270 C 100.452 314.601,101.712 315.108,102.169 315.397 C 102.626 315.685,103.627 316.053,104.394 316.213 C 105.161 316.374,106.151 316.738,106.594 317.022 C 107.037 317.306,108.390 317.813,109.600 318.148 C 112.421 318.928,115.474 319.937,117.000 320.595 C 124.110 323.656,123.785 323.782,128.932 316.000 C 129.296 315.450,130.253 314.010,131.060 312.800 C 134.340 307.877,135.929 305.285,138.905 300.000 C 142.706 293.252,143.170 291.610,141.660 290.263 C 141.026 289.697,133.997 286.800,133.258 286.800 C 133.060 286.800,132.683 286.542,132.421 286.226 C 132.159 285.910,131.442 285.541,130.827 285.406 C 130.213 285.271,127.660 284.093,125.155 282.788 C 122.650 281.484,119.974 280.123,119.210 279.765 L 117.819 279.114 118.790 278.327 C 119.929 277.405,121.833 277.596,123.847 278.834 C 124.533 279.255,125.343 279.602,125.647 279.604 C 125.951 279.606,127.100 280.050,128.200 280.591 C 129.300 281.132,130.450 281.581,130.756 281.587 C 131.062 281.594,132.052 281.945,132.956 282.367 C 135.078 283.358,142.236 285.659,147.000 286.883 C 147.880 287.109,148.945 287.473,149.366 287.692 C 150.235 288.143,156.427 289.517,164.400 291.029 C 184.044 294.754,204.401 295.374,224.000 292.845 C 233.120 291.668,248.861 288.639,250.600 287.725 C 251.040 287.494,252.120 287.175,253.000 287.016 C 253.880 286.857,255.050 286.495,255.600 286.212 C 256.150 285.930,257.500 285.490,258.600 285.234 C 260.566 284.778,263.838 283.635,266.200 282.578 C 266.860 282.282,268.320 281.779,269.445 281.458 C 270.569 281.138,271.829 280.690,272.245 280.463 C 276.886 277.924,279.896 277.180,280.925 278.317 C 281.623 279.089,281.598 279.132,279.919 280.054 C 275.290 282.595,264.658 287.600,263.888 287.600 C 263.607 287.600,263.018 287.852,262.577 288.161 C 262.137 288.469,261.046 288.918,260.154 289.159 C 256.600 290.115,256.715 293.071,260.564 299.714 C 261.684 301.647,262.960 303.918,263.400 304.761 C 263.840 305.604,264.470 306.611,264.800 307.000 C 265.130 307.389,265.760 308.400,266.200 309.247 C 267.213 311.196,271.531 317.568,272.482 318.516 C 272.877 318.909,273.200 319.410,273.200 319.629 C 273.200 321.848,276.965 322.874,280.400 321.592 C 281.808 321.067,284.197 320.206,288.094 318.821 C 294.648 316.491,296.315 315.873,297.400 315.368 C 298.060 315.061,299.394 314.536,300.365 314.200 C 301.336 313.864,302.326 313.432,302.565 313.241 C 302.804 313.049,303.573 312.770,304.272 312.620 C 304.972 312.471,305.759 312.090,306.021 311.774 C 306.283 311.458,306.801 311.200,307.170 311.200 C 307.540 311.200,308.733 310.772,309.821 310.248 C 310.910 309.725,313.060 308.722,314.600 308.021 C 316.140 307.320,317.670 306.581,318.000 306.379 C 318.330 306.177,319.230 305.741,320.000 305.410 C 320.770 305.079,321.670 304.626,322.000 304.403 C 322.330 304.180,323.050 303.819,323.600 303.599 C 324.150 303.380,324.870 303.016,325.200 302.790 C 325.530 302.565,326.520 302.011,327.400 301.560 C 329.902 300.277,330.740 299.777,331.497 299.112 C 331.884 298.772,332.650 298.362,333.200 298.200 C 333.750 298.038,334.503 297.640,334.872 297.316 C 335.242 296.991,336.082 296.428,336.738 296.063 C 337.394 295.698,338.700 294.974,339.641 294.454 C 340.581 293.933,341.599 293.258,341.903 292.954 C 342.208 292.649,342.619 292.400,342.817 292.400 C 343.168 292.400,346.802 290.042,347.200 289.556 C 347.310 289.422,348.021 288.993,348.780 288.604 C 349.540 288.215,350.380 287.695,350.647 287.448 C 350.915 287.202,352.336 286.190,353.806 285.200 C 358.673 281.920,358.951 281.572,359.310 278.293 C 360.357 268.739,360.733 243.997,359.983 234.000 C 358.691 216.781,356.550 202.651,353.225 189.400 C 352.784 187.640,352.060 184.760,351.618 183.000 C 351.175 181.240,350.616 179.260,350.374 178.600 C 350.133 177.940,349.692 176.500,349.394 175.400 C 348.771 173.100,347.392 168.844,346.606 166.800 C 346.311 166.030,345.798 164.590,345.468 163.600 C 344.116 159.550,343.185 157.062,342.864 156.643 C 342.677 156.399,342.287 155.300,341.997 154.200 C 341.708 153.100,341.162 151.570,340.784 150.800 C 340.406 150.030,339.738 148.590,339.298 147.600 C 336.658 141.658,330.842 129.825,327.993 124.600 C 326.914 122.620,325.757 120.429,325.423 119.732 C 325.089 119.034,324.228 117.594,323.510 116.532 C 322.792 115.469,321.933 114.108,321.602 113.507 C 320.023 110.640,318.118 107.580,315.787 104.166 C 314.384 102.111,312.960 99.897,312.624 99.247 C 312.230 98.485,311.262 97.714,309.906 97.080 C 303.780 94.218,292.171 89.566,289.236 88.797 C 288.266 88.543,287.096 88.096,286.636 87.804 C 286.176 87.512,284.728 87.056,283.419 86.791 C 282.109 86.526,280.489 86.073,279.819 85.784 C 278.260 85.111,272.226 83.328,270.400 83.000 C 269.630 82.862,268.190 82.492,267.200 82.178 C 260.096 79.926,245.613 77.209,243.517 77.735 C 242.865 77.899,242.110 78.629,241.488 79.698 C 239.489 83.131,236.912 88.242,236.410 89.767 C 236.126 90.630,235.529 91.952,235.084 92.707 L 234.274 94.080 231.637 93.820 C 230.187 93.678,228.550 93.399,228.000 93.202 C 223.708 91.662,175.892 91.662,171.600 93.202 C 171.050 93.399,169.419 93.677,167.976 93.819 L 165.352 94.077 164.704 92.538 C 164.347 91.692,163.512 90.010,162.847 88.800 C 162.182 87.590,160.911 85.053,160.023 83.162 C 157.422 77.627,156.476 77.059,151.200 77.861 M150.200 182.432 C 151.080 182.660,152.468 183.015,153.285 183.221 C 156.210 183.962,161.063 186.838,163.814 189.461 C 167.156 192.648,168.877 195.144,171.368 200.419 C 172.843 203.541,173.995 212.247,173.268 214.780 C 173.044 215.561,172.668 217.370,172.432 218.800 C 171.272 225.842,164.464 234.898,157.759 238.319 C 151.412 241.557,142.566 241.965,139.000 239.183 C 138.780 239.012,137.790 238.556,136.800 238.171 C 131.405 236.072,125.204 228.493,122.587 220.800 C 118.655 209.245,124.402 191.884,133.800 186.922 C 134.460 186.573,135.090 186.158,135.200 185.998 C 135.725 185.236,141.739 182.942,145.000 182.260 C 146.492 181.948,148.594 182.018,150.200 182.432 M255.000 182.391 C 258.430 183.155,260.186 183.656,260.584 183.985 C 260.813 184.174,261.810 184.648,262.800 185.038 C 268.027 187.098,275.493 195.626,276.597 200.800 C 276.762 201.570,277.190 202.740,277.548 203.400 C 280.028 207.965,277.619 223.023,273.484 228.800 C 270.538 232.917,265.485 237.495,263.077 238.228 C 262.595 238.374,261.930 238.723,261.600 239.003 C 261.270 239.282,260.370 239.639,259.600 239.795 C 258.830 239.951,257.332 240.356,256.272 240.695 C 253.094 241.710,245.780 240.696,243.525 238.928 C 243.236 238.701,242.429 238.324,241.732 238.090 C 241.035 237.856,240.111 237.335,239.679 236.932 C 239.248 236.529,238.412 235.840,237.822 235.400 C 236.510 234.422,234.046 231.979,233.107 230.725 C 232.725 230.216,232.076 229.350,231.663 228.800 C 229.582 226.026,227.678 221.290,227.160 217.600 C 226.929 215.950,226.544 213.925,226.306 213.100 C 225.996 212.028,225.995 211.172,226.302 210.100 C 226.538 209.275,226.933 207.240,227.179 205.578 C 227.638 202.478,228.865 198.964,230.102 197.211 C 230.486 196.667,230.800 196.065,230.800 195.874 C 230.800 195.683,231.163 195.048,231.607 194.463 C 232.050 193.878,232.725 192.984,233.107 192.475 C 233.488 191.966,234.464 190.886,235.275 190.075 C 236.086 189.264,237.166 188.288,237.675 187.907 C 238.184 187.525,239.050 186.875,239.600 186.461 C 241.196 185.260,244.022 183.955,246.400 183.320 C 251.586 181.935,252.506 181.836,255.000 182.391 "
       stroke="none"
       fill="#fcfcfc"
       fill-rule="evenodd"
       style="fill:#5865f2;fill-opacity:1" />
    <path
       id="path1"
       d=""
       stroke="none"
       fill="#000000"
       fill-rule="evenodd"
       style="fill:#5865f2;fill-opacity:1" />
  </g>
</svg>
