<?xml version="1.0" encoding="UTF-8" standalone="no"?>
<svg
   id="svg"
   version="1.1"
   width="400"
   height="400"
   viewBox="0, 0, 400,400"
   sodipodi:docname="github_cutout.svg"
   inkscape:version="1.1 (c68e22c387, 2021-05-23)"
   xmlns:inkscape="http://www.inkscape.org/namespaces/inkscape"
   xmlns:sodipodi="http://sodipodi.sourceforge.net/DTD/sodipodi-0.dtd"
   xmlns="http://www.w3.org/2000/svg"
   xmlns:svg="http://www.w3.org/2000/svg">
  <defs
     id="defs2099" />
  <sodipodi:namedview
     id="namedview2097"
     pagecolor="#ffffff"
     bordercolor="#666666"
     borderopacity="1.0"
     inkscape:pageshadow="2"
     inkscape:pageopacity="0.0"
     inkscape:pagecheckerboard="0"
     showgrid="false"
     inkscape:zoom="1.32"
     inkscape:cx="147.34848"
     inkscape:cy="194.31818"
     inkscape:window-width="1366"
     inkscape:window-height="713"
     inkscape:window-x="-8"
     inkscape:window-y="-8"
     inkscape:window-maximized="1"
     inkscape:current-layer="svgg" />
  <g
     id="svgg">
    <path
       id="path0"
       d="M185.200 42.064 C 175.207 42.889,166.838 44.427,154.346 47.735 C 146.891 49.710,129.440 56.532,126.000 58.818 C 125.670 59.037,124.860 59.468,124.200 59.775 C 122.386 60.621,116.386 63.948,114.800 64.987 C 112.086 66.766,106.288 70.612,104.816 71.609 C 93.584 79.219,75.778 97.026,68.000 108.428 C 67.450 109.234,66.280 110.931,65.400 112.198 C 62.683 116.111,59.326 121.633,57.373 125.400 C 56.346 127.380,55.369 129.180,55.201 129.400 C 53.057 132.203,45.749 150.928,43.415 159.600 C 43.030 161.030,42.374 163.398,41.957 164.862 C 41.541 166.326,41.202 167.856,41.204 168.262 C 41.206 168.668,40.854 170.530,40.422 172.400 C 37.296 185.923,36.615 212.433,39.023 226.857 C 39.340 228.759,39.600 230.810,39.600 231.416 C 39.600 234.083,43.797 250.483,46.198 257.200 C 48.742 264.316,50.081 267.619,52.554 272.875 C 53.349 274.567,54.000 276.053,54.000 276.178 C 54.000 276.304,54.939 278.057,56.086 280.075 C 58.834 284.908,59.203 285.566,60.498 287.948 C 61.102 289.058,62.138 290.739,62.801 291.683 C 63.463 292.627,64.848 294.660,65.878 296.200 C 78.427 314.956,99.321 334.125,119.400 345.301 C 123.879 347.794,133.015 352.399,133.491 352.402 C 133.661 352.404,134.340 352.689,135.000 353.036 C 148.895 360.348,159.451 359.822,161.811 351.702 C 162.344 349.871,162.390 347.383,162.150 333.554 C 161.830 315.138,162.048 316.132,158.423 316.577 C 151.660 317.407,149.327 317.624,144.658 317.859 C 131.751 318.509,120.634 314.939,114.057 308.031 C 111.748 305.605,110.392 303.549,109.027 300.400 C 107.228 296.252,105.117 291.883,104.387 290.800 C 104.017 290.250,102.473 287.917,100.957 285.616 C 97.243 279.978,94.563 277.189,89.869 274.074 C 84.019 270.191,83.681 269.428,87.517 268.752 C 95.207 267.397,105.295 273.838,112.342 284.600 C 123.188 301.163,137.417 306.045,157.200 299.991 C 161.777 298.590,163.200 297.532,163.200 295.530 C 163.200 294.461,164.580 289.358,165.670 286.400 C 166.390 284.442,169.433 279.764,171.308 277.730 C 174.693 274.057,173.831 272.846,167.124 271.854 C 150.107 269.335,135.255 264.078,126.600 257.510 C 117.144 250.334,111.369 243.126,107.122 233.200 C 100.420 217.536,98.366 195.225,102.242 180.200 C 104.573 171.165,108.082 164.087,113.516 157.459 C 117.028 153.175,117.033 153.148,115.378 147.400 C 113.246 139.994,113.120 128.962,115.077 121.000 C 116.301 116.021,117.714 112.042,118.343 111.801 C 119.255 111.451,125.792 112.357,128.400 113.195 C 129.610 113.584,131.590 114.224,132.800 114.618 C 134.973 115.326,140.481 117.745,143.200 119.186 C 148.804 122.154,151.363 123.637,155.000 126.019 C 159.168 128.750,160.306 128.938,164.772 127.631 C 169.440 126.264,179.273 124.449,184.736 123.945 C 202.625 122.295,220.744 123.603,235.865 127.636 C 239.993 128.737,241.349 128.640,243.759 127.071 C 244.881 126.340,246.970 124.988,248.400 124.066 C 258.803 117.360,277.664 110.424,281.869 111.758 C 282.536 111.970,284.400 115.910,284.400 117.107 C 284.400 117.369,284.746 118.712,285.170 120.092 C 287.551 127.852,287.557 140.221,285.184 147.200 C 283.725 151.491,283.800 154.556,285.389 155.509 C 287.591 156.832,294.134 167.827,296.512 174.200 C 302.892 191.305,300.633 219.554,291.473 237.200 C 281.430 256.548,263.155 267.398,233.096 271.859 C 226.378 272.856,225.780 273.919,229.482 278.286 C 233.786 283.362,235.406 286.924,237.081 295.000 C 237.647 297.727,237.779 302.234,237.973 325.466 L 238.200 352.732 239.403 354.466 C 242.407 358.797,248.585 359.567,256.300 356.571 C 257.675 356.037,259.979 355.141,261.420 354.579 C 267.112 352.362,277.803 347.061,282.991 343.884 C 289.283 340.031,291.155 338.788,296.200 335.107 C 299.696 332.556,301.435 331.230,302.142 330.576 C 302.394 330.343,303.860 329.103,305.400 327.820 C 321.623 314.308,336.355 295.141,345.997 275.000 C 350.259 266.098,349.995 266.707,352.348 260.400 C 353.150 258.251,355.269 251.599,356.810 246.400 C 358.732 239.911,360.759 228.234,361.843 217.400 C 362.152 214.314,362.151 193.806,361.841 190.400 C 361.329 184.758,360.298 177.213,359.547 173.600 C 359.112 171.510,358.488 168.450,358.160 166.800 C 357.832 165.150,357.212 162.720,356.782 161.400 C 356.352 160.080,356.000 158.709,356.000 158.353 C 356.000 157.998,355.658 156.828,355.240 155.753 C 354.822 154.679,354.106 152.630,353.649 151.200 C 353.192 149.770,352.352 147.340,351.782 145.800 C 351.212 144.260,350.586 142.488,350.390 141.861 C 350.194 141.235,349.866 140.515,349.662 140.261 C 349.458 140.008,348.437 137.820,347.395 135.400 C 346.352 132.980,345.366 130.820,345.203 130.600 C 345.041 130.380,344.009 128.490,342.911 126.400 C 341.812 124.310,340.483 121.936,339.957 121.125 C 339.430 120.314,338.550 118.889,338.000 117.959 C 336.794 115.921,332.276 109.081,331.641 108.333 C 331.392 108.040,330.529 106.900,329.723 105.800 C 326.152 100.926,317.041 90.500,313.695 87.459 C 313.418 87.206,311.888 85.756,310.295 84.235 C 307.443 81.510,297.535 73.436,294.744 71.561 C 286.689 66.150,283.370 64.074,278.400 61.335 C 275.210 59.577,271.880 57.816,271.000 57.422 C 270.120 57.027,268.100 56.096,266.511 55.352 C 264.923 54.609,263.388 54.000,263.100 54.000 C 262.813 54.000,262.223 53.760,261.789 53.467 C 259.737 52.079,244.911 47.329,237.200 45.589 C 221.312 42.003,201.892 40.687,185.200 42.064 "
       stroke="none"
       fill="#fcfcfc"
       fill-rule="evenodd"
       style="fill:#242124;fill-opacity:1" />
    <path
       id="path1"
       d=""
       stroke="none"
       fill="#000000"
       fill-rule="evenodd" />
  </g>
</svg>
