<?xml version="1.0" encoding="UTF-8" standalone="no"?>
<svg
   id="svg"
   version="1.1"
   width="400"
   height="400"
   viewBox="0, 0, 400,400"
   sodipodi:docname="roblox_cutout.svg"
   inkscape:version="1.1 (c68e22c387, 2021-05-23)"
   xmlns:inkscape="http://www.inkscape.org/namespaces/inkscape"
   xmlns:sodipodi="http://sodipodi.sourceforge.net/DTD/sodipodi-0.dtd"
   xmlns="http://www.w3.org/2000/svg"
   xmlns:svg="http://www.w3.org/2000/svg">
  <defs
     id="defs1858" />
  <sodipodi:namedview
     id="namedview1856"
     pagecolor="#ffffff"
     bordercolor="#666666"
     borderopacity="1.0"
     inkscape:pageshadow="2"
     inkscape:pageopacity="0.0"
     inkscape:pagecheckerboard="0"
     showgrid="false"
     inkscape:zoom="1.32"
     inkscape:cx="211.74242"
     inkscape:cy="270.83333"
     inkscape:window-width="1366"
     inkscape:window-height="713"
     inkscape:window-x="-8"
     inkscape:window-y="-8"
     inkscape:window-maximized="1"
     inkscape:current-layer="svg" />
  <g
     id="svgg"
     style="fill:#ffffff">
    <path
       id="path0"
       d="M103.829 38.229 C 103.483 38.574,103.200 39.142,103.200 39.490 C 103.200 39.839,102.736 41.761,102.169 43.762 C 101.602 45.763,100.987 48.030,100.802 48.800 C 100.231 51.179,99.576 53.712,98.992 55.800 C 98.371 58.020,97.299 62.247,96.811 64.400 C 96.637 65.170,96.186 66.880,95.809 68.200 C 95.433 69.520,94.969 71.320,94.779 72.200 C 94.590 73.080,94.163 74.790,93.832 76.000 C 93.500 77.210,92.769 80.090,92.207 82.400 C 91.645 84.710,90.936 87.410,90.631 88.400 C 90.327 89.390,89.869 91.100,89.614 92.200 C 88.909 95.236,88.399 97.217,87.811 99.200 C 87.518 100.190,87.093 101.810,86.867 102.800 C 85.895 107.058,85.482 108.694,85.002 110.200 C 84.721 111.080,84.098 113.510,83.617 115.600 C 83.137 117.690,82.490 120.210,82.180 121.200 C 81.871 122.190,81.178 124.800,80.641 127.000 C 80.104 129.200,78.911 133.880,77.989 137.400 C 77.067 140.920,76.169 144.430,75.992 145.200 C 75.345 148.026,74.370 151.852,73.800 153.800 C 73.254 155.670,72.805 157.420,72.005 160.800 C 71.823 161.570,71.383 163.280,71.026 164.600 C 70.285 167.348,69.848 169.045,69.224 171.600 C 68.982 172.590,68.522 174.300,68.201 175.400 C 67.672 177.215,66.053 183.600,64.550 189.800 C 63.938 192.322,63.437 194.216,62.592 197.200 C 62.312 198.190,61.872 199.900,61.616 201.000 C 61.042 203.463,60.501 205.588,59.785 208.200 C 59.484 209.300,58.861 211.730,58.400 213.600 C 57.939 215.470,57.316 217.900,57.015 219.000 C 56.299 221.612,55.758 223.737,55.184 226.200 C 54.928 227.300,54.488 229.010,54.208 230.000 C 53.363 232.984,52.862 234.878,52.250 237.400 C 50.662 243.948,49.119 249.983,48.618 251.600 C 48.311 252.590,47.844 254.390,47.581 255.600 C 47.317 256.810,46.963 258.250,46.795 258.800 C 46.455 259.916,45.317 264.248,44.800 266.400 C 43.878 270.237,43.537 271.562,43.000 273.400 C 42.424 275.370,41.434 279.259,40.810 282.000 C 40.635 282.770,39.915 285.470,39.211 288.000 C 37.195 295.245,37.264 296.800,39.602 296.800 C 40.011 296.800,42.473 297.355,45.073 298.034 C 54.651 300.534,60.699 302.084,64.600 303.038 C 66.800 303.577,69.410 304.266,70.400 304.570 C 71.390 304.874,73.055 305.320,74.100 305.561 C 78.536 306.586,79.968 306.945,83.000 307.795 C 84.760 308.288,87.190 308.914,88.400 309.187 C 89.610 309.460,91.410 309.934,92.400 310.240 C 93.390 310.547,96.000 311.235,98.200 311.769 C 102.273 312.758,107.950 314.216,119.400 317.212 C 122.920 318.133,126.430 319.020,127.200 319.183 C 128.565 319.471,129.992 319.840,137.400 321.815 C 139.380 322.343,142.080 323.035,143.400 323.354 C 144.720 323.673,148.680 324.683,152.200 325.599 C 155.720 326.515,160.400 327.704,162.600 328.241 C 164.800 328.778,167.410 329.470,168.400 329.778 C 169.390 330.087,171.190 330.558,172.400 330.824 C 173.610 331.091,176.040 331.712,177.800 332.205 C 179.560 332.698,181.900 333.315,183.000 333.575 C 187.269 334.584,188.267 334.835,190.200 335.391 C 192.940 336.179,197.110 337.259,198.800 337.620 C 199.570 337.784,202.630 338.553,205.600 339.328 C 218.848 342.786,224.068 344.131,227.800 345.048 C 230.000 345.589,233.420 346.465,235.400 346.994 C 237.380 347.523,239.900 348.166,241.000 348.422 C 242.100 348.678,243.720 349.117,244.600 349.398 C 245.480 349.679,247.910 350.307,250.000 350.794 C 252.090 351.281,254.610 351.931,255.600 352.238 C 256.590 352.546,259.200 353.234,261.400 353.766 C 263.600 354.299,268.280 355.484,271.800 356.400 C 275.320 357.316,280.000 358.509,282.200 359.052 C 284.400 359.594,287.640 360.418,289.400 360.882 C 295.100 362.383,296.800 362.179,296.800 359.991 C 296.800 359.577,297.087 358.195,297.439 356.920 C 297.790 355.644,298.220 353.970,298.395 353.200 C 298.570 352.430,299.472 348.920,300.400 345.400 C 301.328 341.880,302.231 338.370,302.408 337.600 C 302.921 335.359,303.986 331.167,304.592 329.000 C 305.162 326.964,305.796 324.516,306.405 322.000 C 306.592 321.230,307.202 318.890,307.761 316.800 C 308.320 314.710,309.066 311.763,309.420 310.251 C 309.773 308.739,310.209 307.119,310.389 306.651 C 310.569 306.183,311.114 304.000,311.601 301.800 C 312.088 299.600,312.718 297.170,313.001 296.400 C 313.283 295.630,313.989 293.020,314.569 290.600 C 315.149 288.180,315.896 285.210,316.229 284.000 C 316.562 282.790,316.990 281.080,317.179 280.200 C 317.369 279.320,317.833 277.520,318.209 276.200 C 318.586 274.880,319.037 273.170,319.211 272.400 C 319.799 269.806,320.811 265.814,321.391 263.800 C 321.997 261.699,323.052 257.569,323.589 255.200 C 323.763 254.430,324.214 252.720,324.591 251.400 C 324.967 250.080,325.431 248.280,325.621 247.400 C 325.810 246.520,326.237 244.810,326.568 243.600 C 326.900 242.390,327.631 239.510,328.193 237.200 C 328.755 234.890,329.464 232.190,329.769 231.200 C 330.073 230.210,330.531 228.500,330.786 227.400 C 331.491 224.364,332.001 222.383,332.589 220.400 C 332.882 219.410,333.320 217.745,333.561 216.700 C 334.691 211.808,334.921 210.895,335.399 209.400 C 335.680 208.520,336.127 206.810,336.393 205.600 C 336.895 203.304,337.118 202.444,338.149 198.800 C 338.491 197.590,339.213 194.800,339.753 192.600 C 340.293 190.400,341.489 185.720,342.411 182.200 C 343.333 178.680,344.231 175.170,344.408 174.400 C 345.055 171.574,346.030 167.748,346.600 165.800 C 346.921 164.700,347.382 162.990,347.624 162.000 C 348.676 157.693,348.878 156.893,349.391 155.000 C 349.952 152.934,350.418 151.105,351.176 148.000 C 351.418 147.010,351.878 145.300,352.199 144.200 C 352.728 142.385,354.347 136.000,355.850 129.800 C 356.482 127.195,357.011 125.201,357.814 122.400 C 358.098 121.410,358.715 118.980,359.184 117.000 C 359.654 115.020,360.289 112.500,360.596 111.400 C 362.684 103.914,362.682 103.904,358.357 102.747 C 351.651 100.953,342.909 98.694,341.600 98.417 C 340.099 98.100,336.250 97.101,333.000 96.185 C 331.900 95.875,329.380 95.237,327.400 94.768 C 325.420 94.299,322.360 93.506,320.600 93.007 C 318.840 92.507,316.230 91.824,314.800 91.487 C 310.176 90.400,302.235 88.387,300.921 87.970 C 299.632 87.560,291.216 85.380,286.400 84.207 C 284.970 83.859,282.180 83.143,280.200 82.615 C 272.792 80.640,271.365 80.271,270.000 79.983 C 269.230 79.820,265.720 78.933,262.200 78.012 C 251.083 75.103,245.123 73.571,241.000 72.562 C 238.800 72.023,236.190 71.334,235.200 71.030 C 234.210 70.726,232.590 70.289,231.600 70.058 C 229.113 69.478,225.523 68.568,222.200 67.677 C 220.660 67.264,218.410 66.699,217.200 66.422 C 215.990 66.144,214.190 65.666,213.200 65.360 C 212.210 65.053,209.600 64.366,207.400 63.834 C 203.689 62.935,198.994 61.728,185.200 58.128 C 182.230 57.353,179.170 56.584,178.400 56.420 C 177.034 56.128,175.579 55.753,168.200 53.785 C 166.220 53.257,163.520 52.566,162.200 52.248 C 157.997 51.237,150.269 49.232,148.200 48.615 C 146.193 48.016,138.461 46.056,133.600 44.913 C 132.170 44.576,129.560 43.893,127.800 43.393 C 126.040 42.894,122.980 42.098,121.000 41.624 C 117.412 40.765,116.693 40.574,109.721 38.627 C 105.432 37.430,104.678 37.379,103.829 38.229 M186.600 172.403 C 188.140 172.832,190.570 173.461,192.000 173.803 C 193.430 174.144,196.220 174.855,198.200 175.382 C 200.180 175.910,203.330 176.727,205.200 177.198 C 207.070 177.669,209.500 178.308,210.600 178.618 C 211.700 178.928,214.760 179.721,217.400 180.381 C 221.534 181.413,226.204 182.597,227.896 183.041 C 228.270 183.140,228.287 183.443,227.966 184.286 C 227.732 184.899,227.390 186.120,227.205 187.000 C 226.730 189.266,225.685 193.451,225.009 195.800 C 224.403 197.901,223.348 202.031,222.811 204.400 C 222.637 205.170,222.186 206.880,221.809 208.200 C 221.433 209.520,220.969 211.320,220.779 212.200 C 220.590 213.080,220.162 214.790,219.829 216.000 C 219.496 217.210,218.751 220.180,218.174 222.600 C 216.992 227.551,216.703 228.257,215.937 228.065 C 215.642 227.991,212.610 227.206,209.200 226.321 C 205.790 225.437,202.370 224.580,201.600 224.417 C 200.099 224.100,196.250 223.101,193.000 222.185 C 191.900 221.875,189.380 221.237,187.400 220.768 C 185.420 220.299,182.360 219.502,180.600 218.997 C 178.840 218.493,176.268 217.843,174.885 217.554 C 173.501 217.265,172.174 216.908,171.936 216.760 C 171.511 216.498,172.000 213.487,172.814 211.349 C 172.992 210.881,173.429 209.261,173.784 207.749 C 174.423 205.027,174.567 204.465,175.826 199.800 C 176.183 198.480,176.623 196.770,176.805 196.000 C 177.605 192.620,178.054 190.870,178.600 189.000 C 179.154 187.105,180.079 183.485,180.798 180.400 C 182.065 174.960,183.058 171.605,183.400 171.614 C 183.620 171.619,185.060 171.974,186.600 172.403 "
       stroke="none"
       fill="#fcfcfc"
       fill-rule="evenodd"
       style="fill:#ffffff" />
    <path
       id="path1"
       d=""
       stroke="none"
       fill="#000000"
       fill-rule="evenodd"
       style="fill:#ffffff" />
  </g>
</svg>
