<?xml version="1.0" encoding="UTF-8" standalone="no"?>
<svg
   id="svg"
   version="1.1"
   width="400"
   height="400"
   viewBox="0, 0, 400,400"
   sodipodi:docname="twitter_cutout.svg"
   inkscape:version="1.1 (c68e22c387, 2021-05-23)"
   xmlns:inkscape="http://www.inkscape.org/namespaces/inkscape"
   xmlns:sodipodi="http://sodipodi.sourceforge.net/DTD/sodipodi-0.dtd"
   xmlns="http://www.w3.org/2000/svg"
   xmlns:svg="http://www.w3.org/2000/svg">
  <defs
     id="defs838" />
  <sodipodi:namedview
     id="namedview836"
     pagecolor="#ffffff"
     bordercolor="#666666"
     borderopacity="1.0"
     inkscape:pageshadow="2"
     inkscape:pageopacity="0.0"
     inkscape:pagecheckerboard="0"
     showgrid="false"
     inkscape:zoom="1.2625"
     inkscape:cx="148.91089"
     inkscape:cy="219.0099"
     inkscape:window-width="1366"
     inkscape:window-height="713"
     inkscape:window-x="-8"
     inkscape:window-y="-8"
     inkscape:window-maximized="1"
     inkscape:current-layer="svg" />
  <g
     id="svgg"
     style="fill:#1aa1f2;fill-opacity:1">
    <path
       id="path0"
       d="M253.400 68.247 C 252.960 68.352,251.070 68.706,249.200 69.035 C 239.730 70.699,223.922 77.146,221.641 80.274 C 221.509 80.456,220.344 81.390,219.053 82.350 C 213.562 86.436,206.910 94.070,202.859 100.935 C 200.449 105.019,196.000 115.334,196.000 116.836 C 196.000 117.178,195.749 118.255,195.443 119.229 C 194.797 121.282,193.741 128.369,193.391 133.000 C 193.170 135.925,193.562 142.120,194.233 146.317 L 194.502 148.000 192.351 148.002 C 188.684 148.004,177.719 146.399,168.800 144.553 C 166.019 143.977,164.688 143.646,157.600 141.765 C 153.248 140.610,145.055 137.857,141.000 136.186 C 140.340 135.914,138.118 135.034,136.063 134.230 C 129.906 131.822,116.500 124.908,110.200 120.892 C 104.316 117.141,96.340 111.590,94.400 109.897 C 94.070 109.609,92.450 108.300,90.800 106.988 C 89.150 105.675,87.710 104.502,87.600 104.381 C 87.376 104.134,80.195 97.665,78.074 95.800 C 77.323 95.140,74.532 92.170,71.872 89.200 C 69.212 86.230,66.848 83.600,66.618 83.356 C 66.388 83.112,65.611 82.257,64.890 81.456 C 63.446 79.850,61.740 79.517,60.632 80.625 C 59.521 81.737,55.232 91.026,54.550 93.800 C 54.442 94.240,54.009 95.770,53.588 97.200 C 50.261 108.500,50.961 127.886,55.043 137.514 C 55.349 138.236,55.600 139.034,55.600 139.287 C 55.600 139.711,56.198 141.142,57.902 144.800 C 61.214 151.909,68.734 161.972,73.372 165.500 C 74.736 166.538,74.075 166.719,71.597 165.987 C 70.829 165.760,68.865 165.211,67.232 164.767 C 63.838 163.844,56.926 161.004,55.931 160.124 C 54.870 159.186,52.269 158.988,51.472 159.786 C 50.364 160.893,50.927 172.024,52.372 177.600 C 56.892 195.043,65.785 208.420,79.000 217.655 C 81.241 219.221,87.892 223.200,88.268 223.200 C 88.403 223.200,89.252 223.554,90.156 223.986 C 91.060 224.418,92.520 225.082,93.400 225.462 L 95.000 226.152 91.237 226.537 C 88.187 226.848,86.555 226.785,82.637 226.205 C 79.976 225.812,77.244 225.408,76.565 225.309 C 74.933 225.069,74.000 226.023,74.000 227.931 C 74.000 231.082,79.169 242.041,82.995 247.000 C 83.673 247.880,84.544 249.099,84.929 249.709 C 85.550 250.690,93.714 259.011,95.800 260.788 C 100.297 264.617,110.586 270.146,116.348 271.829 C 121.584 273.359,125.892 274.387,127.200 274.421 C 129.523 274.480,130.219 274.884,129.326 275.657 C 127.886 276.905,120.086 281.696,117.200 283.106 C 116.650 283.374,115.930 283.773,115.600 283.991 C 113.286 285.522,103.512 289.753,97.683 291.747 C 81.417 297.311,68.826 299.165,51.200 298.592 C 46.250 298.430,41.487 298.276,40.616 298.249 C 38.586 298.186,37.761 299.421,38.547 301.346 C 39.272 303.124,57.383 313.300,65.821 316.671 C 66.470 316.930,67.720 317.443,68.600 317.812 C 73.921 320.041,83.692 323.304,91.200 325.360 C 95.984 326.670,105.629 328.800,106.777 328.800 C 107.251 328.800,109.565 329.148,111.919 329.574 C 128.541 332.581,151.286 332.639,170.000 329.724 C 172.310 329.365,175.100 328.948,176.200 328.799 C 180.103 328.269,183.371 327.563,192.200 325.346 C 200.591 323.238,210.184 319.897,219.000 316.013 C 225.328 313.225,225.353 313.213,230.000 310.707 C 242.766 303.821,250.192 298.849,260.598 290.216 C 269.132 283.136,278.766 273.504,283.803 267.018 C 284.807 265.725,285.873 264.473,286.172 264.234 C 286.658 263.846,289.364 260.192,293.110 254.863 C 297.593 248.486,298.102 247.698,301.975 241.127 C 305.892 234.481,309.686 227.137,312.179 221.374 C 313.220 218.968,314.236 216.687,314.436 216.305 C 314.636 215.923,315.085 214.843,315.432 213.905 C 318.034 206.885,318.979 204.171,319.859 201.200 C 320.413 199.330,321.211 196.897,321.633 195.792 C 322.055 194.688,322.400 193.377,322.400 192.879 C 322.400 192.382,322.670 191.328,323.000 190.538 C 323.330 189.749,323.600 188.747,323.600 188.313 C 323.600 187.879,323.940 186.326,324.355 184.862 C 326.841 176.091,328.780 160.066,329.089 145.737 L 329.297 136.075 333.349 132.875 C 343.640 124.745,350.948 116.949,359.899 104.553 C 363.511 99.550,361.034 97.293,354.956 100.049 C 353.441 100.736,351.481 101.532,350.601 101.817 C 349.720 102.102,347.470 102.862,345.600 103.506 C 343.730 104.149,341.030 104.986,339.600 105.364 C 338.170 105.743,336.084 106.311,334.965 106.626 C 333.846 106.942,332.745 107.200,332.519 107.200 C 332.293 107.200,333.979 105.293,336.265 102.962 C 345.699 93.343,354.936 76.193,352.171 73.429 C 351.078 72.335,349.929 72.706,341.972 76.724 C 334.007 80.746,331.597 81.764,323.600 84.486 C 312.802 88.160,310.251 88.517,308.400 86.613 C 307.223 85.403,304.654 83.277,300.600 80.161 C 294.302 75.320,284.143 71.163,273.200 68.948 C 269.923 68.284,255.409 67.771,253.400 68.247 "
       stroke="none"
       fill="#fcfcfc"
       fill-rule="evenodd"
       style="fill:#1aa1f2;fill-opacity:1" />
    <path
       id="path1"
       d=""
       stroke="none"
       fill="#000000"
       fill-rule="evenodd"
       style="fill:#1aa1f2;fill-opacity:1" />
  </g>
</svg>
