<svg width="118" height="91" viewBox="0 0 118 91" fill="none" xmlns="http://www.w3.org/2000/svg">
<path fill-rule="evenodd" clip-rule="evenodd" d="M41.1277 0.107425C40.9255 0.138295 40.5286 0.231641 40.2457 0.315063C39.9627 0.398486 39.0366 0.593629 38.1877 0.748713C36.6129 1.0361 35.2855 1.35031 34.3657 1.65313C34.0827 1.74611 33.355 1.93831 32.7487 2.0798C32.1423 2.22165 31.4477 2.4065 31.2052 2.4914C30.3654 2.78503 29.2898 3.11652 28.296 3.38773C27.747 3.53767 27.2178 3.72363 27.12 3.80117C27.0223 3.87871 26.5783 4.02644 26.1337 4.13008C25.689 4.23335 25.0947 4.44025 24.8129 4.59019C24.531 4.74013 24.1984 4.86251 24.0738 4.86251C23.9492 4.86251 23.7166 4.95181 23.5571 5.06096C23.3976 5.1701 23.0687 5.30645 22.8262 5.36378C22.5836 5.42111 22.1206 5.58869 21.7972 5.73679C20.0368 6.54198 19.5584 6.74852 19.2247 6.84701C19.0225 6.90654 18.7579 7.03884 18.6367 7.14101C18.5154 7.24317 18.2703 7.37106 18.092 7.42545C17.9138 7.47948 17.6161 7.78156 17.4305 8.09651C17.2449 8.41109 16.8947 8.973 16.6522 9.34454C15.2237 11.5341 14.9043 12.046 14.1274 13.3937C12.0849 16.9364 12.1007 16.9073 10.2742 20.5551C8.50579 24.0872 8.05266 25.0338 8.05266 25.1966C8.05266 25.3179 7.44261 26.7082 7.10598 27.3535C7.00088 27.5556 6.82999 27.9856 6.72636 28.309C6.62272 28.6324 6.45551 29.0293 6.35444 29.191C6.25338 29.3527 6.12218 29.7154 6.06339 29.9973C6.00422 30.2792 5.87045 30.643 5.76608 30.8058C5.66171 30.9686 5.47539 31.4658 5.35227 31.9105C5.06415 32.9524 4.71135 34.0185 4.3795 34.8505C4.23434 35.2143 4.0719 35.7435 4.01825 36.0265C3.96459 36.3095 3.83046 36.7725 3.71947 37.0555C3.50448 37.6053 3.03298 39.4413 2.69194 41.055C2.57765 41.5971 2.42183 42.1593 2.34612 42.3045C2.27042 42.4493 2.12636 43.1634 2.02603 43.891C1.9257 44.6187 1.75776 45.4786 1.65302 45.802C1.54791 46.1254 1.38548 47.0184 1.29213 47.7865C1.19842 48.5546 1.0562 49.3815 0.97645 49.624C0.55897 50.8878 0.00110486 59.2051 2.36417e-06 64.177C-0.00110014 71.8104 0.383305 75.0458 1.35167 75.56C1.52035 75.6496 1.88969 75.8878 2.17266 76.0895C2.7467 76.4986 2.95213 76.6386 3.51771 77.0064C3.73197 77.1461 4.29424 77.518 4.76721 77.8337C5.24019 78.149 5.89176 78.579 6.21516 78.7888C6.53856 78.9986 6.83624 79.2074 6.87666 79.2526C6.91709 79.2982 7.38014 79.583 7.90566 79.8858C8.43119 80.1886 9.45651 80.7957 10.1842 81.2349C10.9118 81.6741 11.6328 82.0776 11.7868 82.132C12.187 82.2731 13.6717 83.0669 13.9327 83.2797C14.0539 83.3782 14.3847 83.5472 14.6677 83.6545C14.9506 83.7618 15.2814 83.9298 15.4027 84.0275C15.5239 84.1253 15.8602 84.2815 16.1498 84.3741C16.4394 84.467 17.1009 84.7633 17.6198 85.0326C18.1387 85.302 18.8053 85.6015 19.1016 85.6982C19.3974 85.7948 20.0258 86.0745 20.4981 86.32C20.9699 86.5655 21.6818 86.8661 22.0798 86.9877C22.4778 87.1094 22.9408 87.2957 23.1088 87.4019C23.2767 87.5078 23.6446 87.643 23.9265 87.7018C24.2083 87.761 24.5722 87.8947 24.735 87.9991C24.8978 88.1035 25.395 88.2898 25.8397 88.4129C26.8764 88.6996 27.9984 89.0704 28.5592 89.3122C31.1721 90.4371 31.0527 90.4834 32.9442 87.6235C33.0779 87.4214 33.4296 86.8922 33.7262 86.4475C34.9316 84.6383 35.5156 83.6858 36.6092 81.7435C38.0061 79.2636 38.1766 78.6602 37.6217 78.1652C37.3887 77.9572 34.8056 76.8925 34.534 76.8925C34.4612 76.8925 34.3227 76.7977 34.2264 76.6816C34.1301 76.5654 33.8666 76.4298 33.6406 76.3802C33.4149 76.3306 32.4767 75.8977 31.5561 75.4181C30.6355 74.9389 29.6521 74.4387 29.3713 74.3072L28.8601 74.0679L29.217 73.7787C29.6356 73.4398 30.3353 73.51 31.0754 73.965C31.3275 74.1197 31.6252 74.2472 31.7369 74.248C31.8487 74.2487 32.2709 74.4119 32.6752 74.6107C33.0794 74.8095 33.502 74.9745 33.6145 74.9767C33.7269 74.9793 34.0908 75.1083 34.423 75.2634C35.2028 75.6276 37.8334 76.4732 39.5842 76.923C39.9076 77.0061 40.299 77.1398 40.4537 77.2203C40.773 77.3861 43.0486 77.891 45.9787 78.4467C53.1978 79.8156 60.679 80.0435 67.8817 79.1141C71.2333 78.6815 77.0181 77.5683 77.6572 77.2325C77.8189 77.1476 78.2158 77.0303 78.5392 76.9719C78.8626 76.9135 79.2925 76.7804 79.4947 76.6764C79.6968 76.5728 80.1929 76.4111 80.5972 76.317C81.3197 76.1494 82.5221 75.7294 83.3902 75.3409C83.6327 75.2321 84.1693 75.0473 84.5827 74.9293C84.9958 74.8117 85.4588 74.6471 85.6117 74.5637C87.3173 73.6306 88.4234 73.3572 88.8016 73.775C89.0581 74.0587 89.0489 74.0745 88.4319 74.4134C86.7307 75.3472 82.8235 77.1865 82.5405 77.1865C82.4372 77.1865 82.2208 77.2791 82.0587 77.3927C81.897 77.5059 81.4961 77.6709 81.1683 77.7594C79.8622 78.1108 79.9044 79.1971 81.3189 81.6384C81.7305 82.3488 82.1995 83.1834 82.3612 83.4932C82.5229 83.803 82.7544 84.1731 82.8757 84.316C82.9969 84.459 83.2285 84.8305 83.3902 85.1418C83.7624 85.858 85.3493 88.1997 85.6988 88.5481C85.844 88.6926 85.9627 88.8767 85.9627 88.9572C85.9627 89.7727 87.3463 90.1497 88.6087 89.6786C89.1261 89.4856 90.0041 89.1692 91.4362 88.6602C93.8448 87.804 94.4574 87.5768 94.8562 87.3913C95.0987 87.2784 95.589 87.0855 95.9458 86.962C96.3026 86.8385 96.6665 86.6798 96.7543 86.6096C96.8421 86.539 97.1247 86.4365 97.3816 86.3814C97.6389 86.3266 97.9281 86.1866 98.0244 86.0704C98.1207 85.9543 98.311 85.8595 98.4466 85.8595C98.5826 85.8595 99.021 85.7022 99.4209 85.5096C99.8211 85.3174 100.611 84.9488 101.177 84.6912C101.743 84.4336 102.305 84.162 102.427 84.0878C102.548 84.0136 102.879 83.8533 103.162 83.7317C103.445 83.61 103.775 83.4436 103.897 83.3616C104.018 83.2797 104.283 83.147 104.485 83.0661C104.687 82.9857 104.951 82.8519 105.073 82.7688C105.194 82.6861 105.558 82.4826 105.881 82.3168C106.801 81.8453 107.109 81.6616 107.387 81.4172C107.529 81.2922 107.811 81.1415 108.013 81.082C108.215 81.0225 108.492 80.8762 108.627 80.7571C108.763 80.6377 109.072 80.4308 109.313 80.2967C109.554 80.1625 110.034 79.8965 110.38 79.7054C110.725 79.5139 111.099 79.2658 111.211 79.1541C111.323 79.042 111.474 78.9505 111.547 78.9505C111.676 78.9505 113.011 78.0839 113.158 77.9053C113.198 77.8561 113.459 77.6984 113.738 77.5555C114.018 77.4125 114.326 77.2214 114.424 77.1307C114.523 77.0402 115.045 76.6683 115.585 76.3045C117.374 75.0991 117.476 74.9712 117.608 73.7662C117.993 70.2551 118.131 61.1624 117.855 57.4885C117.381 51.1605 116.594 45.9678 115.372 41.098C115.21 40.4512 114.944 39.3928 114.781 38.746C114.618 38.0992 114.413 37.3716 114.324 37.129C114.236 36.8865 114.073 36.3573 113.964 35.953C113.735 35.1078 113.228 33.5437 112.939 32.7925C112.831 32.5095 112.642 31.9803 112.521 31.6165C112.024 30.1281 111.682 29.2138 111.564 29.0598C111.495 28.9701 111.352 28.5663 111.246 28.162C111.139 27.7578 110.939 27.1955 110.8 26.9125C110.661 26.6295 110.415 26.1003 110.254 25.7365C109.283 23.5528 107.146 19.2042 106.099 17.284C105.703 16.5564 105.277 15.7512 105.155 15.495C105.032 15.2385 104.715 14.7093 104.452 14.319C104.188 13.9284 103.872 13.4282 103.75 13.2073C103.17 12.1537 102.47 11.0292 101.613 9.77451C101.098 9.0193 100.574 8.20566 100.451 7.96678C100.306 7.68675 99.9505 7.4034 99.4521 7.17041C97.2008 6.11862 92.9345 4.40901 91.8559 4.1264C91.4994 4.03306 91.0694 3.86879 90.9004 3.76148C90.7313 3.65417 90.1992 3.48659 89.7181 3.3892C89.2367 3.29181 88.6414 3.12533 88.3951 3.01913C87.8222 2.7718 85.6047 2.11655 84.9337 1.99601C84.6507 1.94529 84.1215 1.80932 83.7577 1.69392C81.1469 0.866313 75.8244 -0.132185 75.0542 0.0611202C74.8146 0.12139 74.5371 0.389664 74.3085 0.782522C73.5739 2.04415 72.6268 3.92244 72.4423 4.48288C72.338 4.80003 72.1186 5.28587 71.955 5.56333L71.6574 6.06791L70.6883 5.97236C70.1554 5.92017 69.5538 5.81764 69.3517 5.74524C67.7744 5.17929 50.202 5.17929 48.6247 5.74524C48.4225 5.81764 47.8231 5.91981 47.2928 5.97199L46.3285 6.06681L46.0904 5.50122C45.9592 5.19032 45.6523 4.57218 45.4079 4.12751C45.1635 3.68283 44.6965 2.75049 44.3701 2.05554C43.4142 0.0214309 43.0666 -0.18731 41.1277 0.107425ZM40.7602 38.5373C41.0836 38.6211 41.5937 38.7515 41.8939 38.8272C42.9688 39.0995 44.7523 40.1565 45.7633 41.1204C46.9915 42.2916 47.624 43.2089 48.5394 45.1475C49.0815 46.2948 49.5048 49.4943 49.2377 50.4252C49.1553 50.7122 49.0172 51.377 48.9304 51.9025C48.5041 54.4904 46.0022 57.8185 43.5381 59.0757C41.2056 60.2657 37.9547 60.4156 36.6442 59.3933C36.5633 59.3304 36.1995 59.1628 35.8357 59.0214C33.853 58.25 31.5741 55.4647 30.6124 52.6375C29.1674 48.391 31.2794 42.0109 34.7332 40.1873C34.9757 40.0591 35.2072 39.9066 35.2477 39.8478C35.4406 39.5677 37.6507 38.7247 38.8492 38.4741C39.3975 38.3594 40.17 38.3851 40.7602 38.5373ZM79.2742 38.5222C80.5347 38.803 81.18 38.9871 81.3263 39.108C81.4104 39.1775 81.7768 39.3516 82.1407 39.495C84.0616 40.252 86.8053 43.3861 87.2111 45.2875C87.2717 45.5705 87.429 46.0005 87.5606 46.243C88.472 47.9206 87.5866 53.4545 86.067 55.5775C84.9844 57.0905 83.1274 58.7729 82.2425 59.0423C82.0653 59.096 81.8209 59.2242 81.6997 59.3271C81.5784 59.4296 81.2476 59.5608 80.9647 59.6182C80.6817 59.6755 80.1312 59.8243 79.7416 59.9489C78.5737 60.3219 75.8858 59.9493 75.0571 59.2995C74.9509 59.2161 74.6543 59.0776 74.3982 58.9916C74.142 58.9056 73.8025 58.7141 73.6437 58.566C73.4853 58.4179 73.1781 58.1647 72.9613 58.003C72.4791 57.6436 71.5736 56.7458 71.2285 56.285C71.0881 56.0979 70.8496 55.7796 70.6978 55.5775C69.933 54.5581 69.2333 52.8176 69.043 51.4615C68.9581 50.8551 68.8166 50.111 68.7291 49.8078C68.6152 49.4138 68.6148 49.0992 68.7276 48.7053C68.8144 48.4021 68.9595 47.6542 69.0499 47.0434C69.2186 45.9042 69.6696 44.6128 70.1242 43.9686C70.2653 43.7686 70.3807 43.5474 70.3807 43.4772C70.3807 43.407 70.5141 43.1736 70.6772 42.9587C70.84 42.7437 71.0881 42.4151 71.2285 42.2281C71.3685 42.041 71.7272 41.6441 72.0252 41.3461C72.3233 41.048 72.7202 40.6893 72.9072 40.5493C73.0943 40.4089 73.4125 40.1701 73.6147 40.0179C74.2012 39.5766 75.2397 39.097 76.1137 38.8636C78.0195 38.3546 78.3576 38.3182 79.2742 38.5222Z" fill="#5865F2"/>
</svg>
