<svg width="118" height="118" viewBox="0 0 118 118" fill="none" xmlns="http://www.w3.org/2000/svg">
<path fill-rule="evenodd" clip-rule="evenodd" d="M53.6821 0.199382C50.0482 0.506632 47.005 1.07942 42.4624 2.3114C39.7515 3.04694 33.4057 5.58761 32.1548 6.43898C32.0348 6.52054 31.7402 6.68105 31.5002 6.79539C30.8406 7.11046 28.6588 8.34951 28.082 8.73646C27.0951 9.399 24.9868 10.8313 24.4515 11.2027C20.3671 14.0368 13.8922 20.6686 11.0638 24.9149C10.8638 25.2151 10.4384 25.8471 10.1184 26.319C9.13038 27.7763 7.90965 29.8328 7.19947 31.2357C6.82601 31.9731 6.47074 32.6435 6.40965 32.7254C5.63001 33.7693 2.97256 40.743 2.12383 43.9726C1.98383 44.5052 1.74528 45.3871 1.59364 45.9323C1.44237 46.4775 1.3191 47.0474 1.31983 47.1986C1.32055 47.3498 1.19255 48.0432 1.03546 48.7396C-0.101266 53.7759 -0.348904 63.6489 0.526734 69.0207C0.642006 69.7291 0.736552 70.4929 0.736552 70.7186C0.736552 71.7119 2.26274 77.8196 3.13583 80.3212C4.06092 82.9714 4.54783 84.2015 5.4471 86.159C5.73619 86.7891 5.97292 87.3425 5.97292 87.3891C5.97292 87.436 6.31438 88.0889 6.73147 88.8404C7.73074 90.6403 7.86492 90.8854 8.33583 91.7725C8.55547 92.1859 8.9322 92.812 9.17329 93.1635C9.41402 93.5151 9.91765 94.2722 10.2922 94.8458C14.8555 101.831 22.4533 108.97 29.7548 113.132C31.3835 114.061 34.7057 115.776 34.8788 115.777C34.9406 115.777 35.1875 115.884 35.4275 116.013C40.4802 118.736 44.3188 118.54 45.177 115.516C45.3708 114.834 45.3875 113.908 45.3002 108.757C45.1839 101.899 45.2631 102.269 43.945 102.435C41.4857 102.744 40.6373 102.825 38.9395 102.912C34.246 103.154 30.2035 101.825 27.8119 99.2519C26.9722 98.3484 26.4791 97.5827 25.9828 96.4099C25.3286 94.8651 24.5609 93.238 24.2955 92.8347C24.1609 92.6298 23.5995 91.761 23.0482 90.904C21.6977 88.8043 20.7231 87.7656 19.0162 86.6055C16.8889 85.1594 16.766 84.8752 18.1609 84.6235C20.9573 84.1188 24.6257 86.5176 27.1882 90.5256C31.1322 96.6941 36.3064 98.5123 43.5002 96.2576C45.1646 95.7358 45.6821 95.3418 45.6821 94.5962C45.6821 94.1981 46.1839 92.2976 46.5802 91.196C46.8421 90.4668 47.9486 88.7246 48.6304 87.9671C49.8613 86.5992 49.5479 86.1482 47.109 85.7787C40.921 84.8406 35.5202 82.8827 32.3729 80.4367C28.9344 77.7642 26.8344 75.0797 25.29 71.383C22.8529 65.5494 22.106 57.2402 23.5155 51.6446C24.3631 48.2797 25.6391 45.6437 27.6151 43.1753C28.8922 41.5798 28.894 41.5697 28.2922 39.429C27.5169 36.6709 27.4711 32.5623 28.1828 29.597C28.6279 27.7428 29.1417 26.2609 29.3704 26.1711C29.702 26.0408 32.0791 26.3782 33.0275 26.6903C33.4675 26.8352 34.1875 27.0735 34.6275 27.2202C35.4177 27.4839 37.4206 28.3848 38.4093 28.9215C40.4471 30.0268 41.3777 30.5791 42.7002 31.4662C44.2159 32.4833 44.6297 32.5533 46.2537 32.0666C47.9511 31.5575 51.5268 30.8815 53.5133 30.6938C60.0184 30.0793 66.6072 30.5665 72.1057 32.0685C73.6068 32.4785 74.0999 32.4424 74.9763 31.858C75.3843 31.5858 76.1439 31.0823 76.6639 30.7389C80.4468 28.2414 87.3054 25.6583 88.8345 26.1551C89.077 26.2341 89.7548 27.7014 89.7548 28.1472C89.7548 28.2448 89.8807 28.7449 90.0348 29.2589C90.9007 32.1489 90.9028 36.7554 90.0399 39.3546C89.5094 40.9526 89.5367 42.0941 90.1145 42.449C90.9152 42.9417 93.2945 47.0366 94.1592 49.41C96.4792 55.7803 95.6577 66.3009 92.3268 72.8727C88.6748 80.0784 82.0294 84.1192 71.0988 85.7806C68.6559 86.1519 68.4384 86.5478 69.7846 88.1741C71.3497 90.0646 71.9388 91.3911 72.5479 94.3988C72.7537 95.4144 72.8017 97.093 72.8723 105.745L72.9548 115.9L73.3923 116.545C74.4846 118.158 76.7312 118.445 79.5366 117.329C80.0366 117.131 80.8745 116.797 81.3985 116.588C83.4683 115.762 87.3559 113.788 89.2425 112.604C91.5305 111.169 92.2112 110.707 94.0457 109.336C95.317 108.386 95.9494 107.892 96.2065 107.648C96.2981 107.561 96.8312 107.1 97.3912 106.622C103.29 101.59 108.648 94.4514 112.154 86.9504C113.704 83.635 113.608 83.8618 114.463 81.513C114.755 80.7126 115.525 78.2353 116.086 76.299C116.785 73.8824 117.522 69.5336 117.916 65.4987C118.028 64.3494 118.028 56.7118 117.915 55.4433C117.729 53.3421 117.354 50.5321 117.081 49.1866C116.923 48.4082 116.696 47.2686 116.577 46.6541C116.457 46.0396 116.232 45.1346 116.076 44.643C115.919 44.1514 115.791 43.6408 115.791 43.5082C115.791 43.376 115.667 42.9403 115.515 42.5399C115.363 42.1399 115.102 41.3768 114.936 40.8443C114.77 40.3117 114.465 39.4067 114.257 38.8332C114.05 38.2596 113.822 37.5997 113.751 37.3662C113.68 37.133 113.561 36.8649 113.486 36.7703C113.412 36.6761 113.041 35.8612 112.662 34.96C112.283 34.0587 111.924 33.2543 111.865 33.1723C111.806 33.0904 111.431 32.3865 111.032 31.6081C110.632 30.8298 110.149 29.9456 109.957 29.6436C109.766 29.3416 109.446 28.8109 109.246 28.4645C108.807 27.7055 107.164 25.1581 106.933 24.8796C106.843 24.7704 106.529 24.3459 106.236 23.9362C104.937 22.121 101.624 18.2381 100.408 17.1056C100.307 17.0114 99.7505 16.4713 99.1712 15.9049C98.1341 14.89 94.5312 11.8831 93.5163 11.1848C90.5872 9.16959 89.3803 8.39644 87.573 7.37637C86.413 6.72164 85.2021 6.06581 84.8821 5.91907C84.5621 5.77196 83.8276 5.42524 83.2497 5.14815C82.6723 4.87144 82.1141 4.64464 82.0094 4.64464C81.905 4.64464 81.6905 4.55525 81.5326 4.44613C80.7865 3.92921 75.3952 2.1602 72.5912 1.51218C66.8137 0.176664 59.7519 -0.313446 53.6821 0.199382Z" fill="#242124"/>
</svg>
