<svg width="118" height="97" viewBox="0 0 118 97" fill="none" xmlns="http://www.w3.org/2000/svg">
<path fill-rule="evenodd" clip-rule="evenodd" d="M78.5196 0.0677983C78.3591 0.106119 77.6693 0.235315 76.9868 0.355386C73.5307 0.962677 67.7614 3.31556 66.9289 4.45716C66.8808 4.52358 66.4556 4.86445 65.9844 5.21481C63.9804 6.70603 61.5527 9.49212 60.0743 11.9976C59.1947 13.4881 57.571 17.2526 57.571 17.8008C57.571 17.9256 57.4794 18.3186 57.3677 18.6741C57.132 19.4234 56.7466 22.0098 56.6189 23.7C56.5382 24.7675 56.6813 27.0284 56.9262 28.5601L57.0243 29.1743L56.2393 29.1751C54.901 29.1758 50.8992 28.59 47.6442 27.9163C46.6292 27.7061 46.1435 27.5853 43.5566 26.8988C41.9683 26.4773 38.9782 25.4726 37.4983 24.8627C37.2574 24.7635 36.4465 24.4423 35.6965 24.1489C33.4495 23.27 28.5568 20.7467 26.2576 19.281C24.1102 17.9121 21.1993 15.8862 20.4913 15.2683C20.3708 15.1632 19.7796 14.6855 19.1774 14.2067C18.5752 13.7275 18.0497 13.2994 18.0095 13.2552C17.9278 13.1651 15.307 10.8042 14.5329 10.1235C14.2589 9.88263 13.2403 8.7987 12.2695 7.71477C11.2987 6.63085 10.4359 5.67101 10.352 5.58196C10.268 5.49291 9.98446 5.18087 9.72132 4.88854C9.19433 4.30241 8.57171 4.18088 8.16733 4.58526C7.76186 4.99109 6.19656 8.38119 5.94765 9.39359C5.90824 9.55417 5.75021 10.1126 5.59657 10.6344C4.38235 14.7585 4.63782 21.8336 6.12758 25.3474C6.23926 25.6109 6.33086 25.9021 6.33086 25.9945C6.33086 26.1492 6.54911 26.6715 7.171 28.0065C8.37974 30.601 11.1242 34.2735 12.8169 35.5611C13.3147 35.9399 13.0735 36.006 12.1691 35.7388C11.8888 35.656 11.172 35.4556 10.5761 35.2936C9.33739 34.9567 6.8148 33.9203 6.45166 33.5991C6.06444 33.2568 5.11518 33.1845 4.82431 33.4757C4.41994 33.8797 4.62541 37.9421 5.15278 39.9771C6.80239 46.3431 10.048 51.2251 14.8709 54.5955C15.6888 55.1671 18.1161 56.6192 18.2533 56.6192C18.3026 56.6192 18.6124 56.7484 18.9424 56.9061C19.2723 57.0637 19.8051 57.3061 20.1263 57.4448L20.7102 57.6966L19.3369 57.8371C18.2238 57.9506 17.6282 57.9276 16.1982 57.7159C15.2271 57.5725 14.23 57.4251 13.9822 57.3889C13.3866 57.3013 13.0461 57.6495 13.0461 58.3458C13.0461 59.4958 14.9326 63.4954 16.3289 65.3052C16.5763 65.6264 16.8942 66.0713 17.0347 66.2939C17.2614 66.6519 20.2409 69.6888 21.0022 70.3373C22.6434 71.7347 26.3985 73.7526 28.5014 74.3668C30.4123 74.9252 31.9845 75.3004 32.4619 75.3128C33.3097 75.3343 33.5637 75.4818 33.2378 75.7639C32.7122 76.2193 29.8656 77.9678 28.8123 78.4824C28.6116 78.5802 28.3488 78.7259 28.2284 78.8054C27.3839 79.3642 23.8168 80.9083 21.6894 81.636C15.753 83.6667 11.1578 84.3433 4.72504 84.1342C2.9185 84.0751 1.1802 84.0189 0.862323 84.009C0.121458 83.986 -0.179633 84.4367 0.107224 85.1393C0.371819 85.7882 6.98158 89.502 10.0611 90.7323C10.298 90.8268 10.7542 91.014 11.0753 91.1487C13.0173 91.9622 16.5833 93.153 19.3234 93.9034C21.0693 94.3815 24.5894 95.1589 25.0083 95.1589C25.1813 95.1589 26.0258 95.2859 26.885 95.4413C32.9513 96.5388 41.2523 96.5599 48.0821 95.4961C48.9252 95.3651 49.9434 95.2129 50.3449 95.1585C51.7693 94.9651 52.962 94.7074 56.1842 93.8983C59.2466 93.129 62.7476 91.9096 65.9651 90.4921C68.2745 89.4746 68.2837 89.4702 69.9796 88.5557C74.6387 86.0425 77.3489 84.228 81.1466 81.0773C84.2612 78.4934 87.7772 74.9781 89.6155 72.611C89.9819 72.1391 90.3709 71.6822 90.4801 71.5949C90.6574 71.4533 91.645 70.1198 93.0121 68.1749C94.6483 65.8476 94.834 65.56 96.2475 63.1618C97.6771 60.7363 99.0617 58.0561 99.9715 55.9528C100.351 55.0747 100.722 54.2422 100.795 54.1028C100.868 53.9634 101.032 53.5693 101.159 53.2269C102.108 50.6649 102.453 49.6744 102.774 48.5901C102.977 47.9077 103.268 47.0197 103.422 46.6164C103.576 46.2135 103.702 45.7351 103.702 45.5533C103.702 45.3719 103.8 44.9873 103.921 44.6989C104.041 44.411 104.14 44.0453 104.14 43.8869C104.14 43.7285 104.264 43.1617 104.415 42.6274C105.323 39.4264 106.03 33.5779 106.143 28.3484L106.219 24.8222L107.698 23.6543C111.454 20.6872 114.121 17.842 117.387 13.318C118.706 11.4921 117.802 10.6684 115.583 11.6742C115.03 11.9249 114.315 12.2154 113.994 12.3195C113.672 12.4235 112.851 12.7008 112.169 12.9359C111.486 13.1705 110.501 13.476 109.979 13.614C109.457 13.7523 108.696 13.9596 108.287 14.0745C107.879 14.1899 107.477 14.284 107.395 14.284C107.312 14.284 107.928 13.5881 108.762 12.7373C112.205 9.2268 115.576 2.96776 114.567 1.95901C114.168 1.55975 113.749 1.69515 110.845 3.16155C107.938 4.62941 107.058 5.00094 104.14 5.99436C100.199 7.33522 99.2679 7.46551 98.5924 6.77063C98.1628 6.32903 97.2252 5.55313 95.7457 4.41592C93.4472 2.64915 89.7396 1.13202 85.7458 0.323633C84.5499 0.0813004 79.2529 -0.105922 78.5196 0.0677983Z" fill="#1AA1F2"/>
</svg>
