<svg width="144" height="144" viewBox="0 0 144 144" fill="none" xmlns="http://www.w3.org/2000/svg">
<path d="M99.3916 60.61C86.6728 47.8912 77.8295 52.9805 76.1132 54.1889C75.9015 54.338 75.7249 54.5028 75.5418 54.6858C73.1624 57.0653 55.4511 74.7765 45.9603 84.2673M99.3916 60.61C113.602 74.8203 104.906 83.5163 104.906 83.5163C104.906 83.5163 104.906 83.5163 104.906 83.5163L63.7764 124.646C63.7764 124.646 63.7764 124.646 63.7763 124.646C63.7763 124.646 52.7194 135.703 38.2848 121.717C24.9781 108.824 33.1408 97.4636 34.4978 95.7668C34.6202 95.6139 34.7451 95.4825 34.8836 95.3441C35.9212 94.3064 40.7576 89.4701 45.9603 84.2673M99.3916 60.61C107.836 52.1659 112.318 47.6836 112.318 47.6835C112.318 47.6835 112.318 47.6835 112.318 47.6835C112.318 47.6835 121.606 38.3961 106.832 23.3955C93.1966 9.55016 83.108 16.6575 81.6349 17.8345C81.5042 17.9389 81.3898 18.0488 81.2715 18.1671L39.4968 59.9418C39.4968 59.9418 39.4968 59.9418 39.4968 59.9418C39.4968 59.9418 30.5658 68.8728 45.9603 84.2673" stroke="white" stroke-width="10"/>
</svg>
