<svg width="166" height="166" viewBox="0 0 166 166" fill="none" xmlns="http://www.w3.org/2000/svg">
<path d="M30.0226 128.066C27.8259 130.263 27.8259 133.825 30.0226 136.021C32.2193 138.218 35.7808 138.218 37.9775 136.021L30.0226 128.066ZM137.625 34.0438C137.625 30.9372 135.107 28.4188 132 28.4188L81.3751 28.4188C78.2685 28.4188 75.7501 30.9372 75.7501 34.0438C75.7501 37.1504 78.2685 39.6688 81.3751 39.6688H126.375V84.6688C126.375 87.7754 128.893 90.2938 132 90.2938C135.107 90.2938 137.625 87.7754 137.625 84.6688L137.625 34.0438ZM37.9775 136.021L135.978 38.0212L128.023 30.0663L30.0226 128.066L37.9775 136.021Z" fill="white"/>
<path d="M65.3118 48.3276C67.8372 48.3276 69.8845 46.2803 69.8845 43.7549C69.8845 41.2295 67.8372 39.1823 65.3118 39.1823V48.3276ZM125.778 100.213C125.778 97.6878 123.73 95.6406 121.205 95.6406C118.68 95.6406 116.632 97.6878 116.632 100.213H125.778ZM119.205 147.471H16V156.616H119.205V147.471ZM18.5726 150.044V45.7549H9.42735V150.044H18.5726ZM16 48.3276H65.3118V39.1823H16V48.3276ZM125.778 150.044V100.213H116.632V150.044H125.778ZM16 147.471C17.4208 147.471 18.5726 148.623 18.5726 150.044H9.42735C9.42735 153.674 12.37 156.616 16 156.616V147.471ZM119.205 156.616C122.835 156.616 125.778 153.674 125.778 150.044H116.632C116.632 148.623 117.784 147.471 119.205 147.471V156.616ZM18.5726 45.7549C18.5726 47.1758 17.4208 48.3276 16 48.3276V39.1823C12.37 39.1823 9.42735 42.125 9.42735 45.7549H18.5726Z" fill="white"/>
</svg>
