<svg width="118" height="118" viewBox="0 0 118 118" fill="none" xmlns="http://www.w3.org/2000/svg">
<circle cx="59" cy="59" r="59" fill="#E6E6E6"/>
<path fill-rule="evenodd" clip-rule="evenodd" d="M54.4933 9.16897C51.4138 9.42935 48.8347 9.91476 44.9851 10.9588C42.6877 11.5821 37.3099 13.7353 36.2498 14.4568C36.1481 14.5259 35.8985 14.6619 35.6951 14.7588C35.1361 15.0258 33.2871 16.0759 32.7983 16.4038C31.962 16.9653 30.1752 18.1791 29.7216 18.4938C26.2603 20.8956 20.7731 26.5157 18.3761 30.1144C18.2066 30.3687 17.8461 30.9043 17.5749 31.3042C16.7376 32.5392 15.7031 34.282 15.1012 35.4709C14.7848 36.0959 14.4837 36.664 14.4319 36.7334C13.7712 37.6181 11.5191 43.5279 10.7999 46.2649C10.6812 46.7163 10.4791 47.4636 10.3505 47.9257C10.2223 48.3878 10.1179 48.8706 10.1185 48.9988C10.1191 49.1269 10.0106 49.7146 9.87751 50.3048C8.91418 54.5728 8.70432 62.9397 9.44638 67.4922C9.54407 68.0925 9.6242 68.7398 9.6242 68.931C9.6242 69.7728 10.9176 74.9489 11.6575 77.0688C12.4415 79.3147 12.8541 80.3572 13.6162 82.0161C13.8612 82.5501 14.0618 83.0191 14.0618 83.0585C14.0618 83.0983 14.3512 83.6516 14.7046 84.2885C15.5515 85.8139 15.6652 86.0215 16.0643 86.7733C16.2504 87.1236 16.5697 87.6542 16.774 87.9521C16.978 88.2501 17.4048 88.8917 17.7222 89.3778C21.5894 95.2974 28.0282 101.347 34.2159 104.875C35.5962 105.662 38.4116 107.115 38.5583 107.116C38.6107 107.117 38.8199 107.206 39.0233 107.316C43.3053 109.624 46.5583 109.458 47.2856 106.895C47.4498 106.317 47.464 105.532 47.39 101.167C47.2914 95.3549 47.3586 95.6686 46.2415 95.809C44.1574 96.071 43.4384 96.1395 41.9996 96.2136C38.0221 96.4188 34.5962 95.2921 32.5694 93.1118C31.8578 92.3461 31.4399 91.6972 31.0193 90.7033C30.4649 89.3942 29.8144 88.0153 29.5894 87.6734C29.4754 87.4999 28.9996 86.7635 28.5324 86.0373C27.3879 84.2579 26.562 83.3776 25.1154 82.3945C23.3127 81.169 23.2085 80.9282 24.3906 80.7148C26.7604 80.2871 29.8692 82.32 32.0409 85.7166C35.3832 90.9442 39.7681 92.485 45.8646 90.5743C47.2751 90.1321 47.7136 89.7982 47.7136 89.1663C47.7136 88.8289 48.1389 87.2183 48.4748 86.2847C48.6967 85.6668 49.6344 84.1903 50.2122 83.5484C51.2554 82.3891 50.9897 82.0069 48.9229 81.6938C43.6788 80.8988 39.1019 79.2396 36.4347 77.1667C33.5207 74.9018 31.741 72.6269 30.4322 69.4941C28.3669 64.5503 27.7339 57.5087 28.9284 52.7666C29.6467 49.915 30.7281 47.6811 32.4027 45.5892C33.4849 44.2371 33.4865 44.2286 32.9765 42.4144C32.3194 40.077 32.2806 36.5952 32.8837 34.0822C33.2609 32.5108 33.6963 31.255 33.8902 31.1789C34.1712 31.0685 36.1857 31.3544 36.9894 31.6189C37.3623 31.7417 37.9725 31.9436 38.3453 32.068C39.015 32.2915 40.7124 33.0549 41.5503 33.5097C43.2772 34.4465 44.0658 34.9145 45.1866 35.6663C46.4711 36.5283 46.8218 36.5876 48.198 36.1751C49.6366 35.7436 52.6668 35.1708 54.3503 35.0117C59.8631 34.491 65.4468 34.9038 70.1066 36.1767C71.3787 36.5241 71.7965 36.4935 72.5392 35.9983C72.885 35.7676 73.5287 35.3409 73.9694 35.0499C77.1753 32.9334 82.9876 30.7443 84.2835 31.1653C84.489 31.2323 85.0634 32.4758 85.0634 32.8536C85.0634 32.9363 85.1701 33.3601 85.3007 33.7957C86.0345 36.2448 86.0363 40.1487 85.305 42.3513C84.8554 43.7056 84.8785 44.673 85.3682 44.9738C86.0468 45.3913 88.0631 48.8615 88.7959 50.8729C90.762 56.2715 90.0659 65.1872 87.2431 70.7566C84.1482 76.863 78.5164 80.2875 69.2532 81.6954C67.183 82.0101 66.9987 82.3456 68.1395 83.7239C69.4659 85.3259 69.9651 86.4501 70.4813 88.999C70.6557 89.8597 70.6964 91.2822 70.7562 98.6145L70.8261 107.22L71.1968 107.767C72.1226 109.134 74.0264 109.377 76.4039 108.432C76.8277 108.263 77.5377 107.98 77.9818 107.803C79.7358 107.103 83.0304 105.43 84.6292 104.427C86.5682 103.211 87.1451 102.819 88.6998 101.657C89.7771 100.852 90.313 100.434 90.5309 100.227C90.6086 100.154 91.0603 99.7624 91.5349 99.3575C96.5343 95.0929 101.074 89.0435 104.046 82.6867C105.359 79.8772 105.278 80.0694 106.003 78.0788C106.25 77.4005 106.903 75.3011 107.378 73.6602C107.97 71.6122 108.595 67.9268 108.929 64.5074C109.024 63.5334 109.024 57.0608 108.928 55.9858C108.77 54.2051 108.453 51.8238 108.221 50.6835C108.087 50.0239 107.895 49.0581 107.794 48.5374C107.693 48.0166 107.502 47.2496 107.369 46.833C107.237 46.4164 107.128 45.9837 107.128 45.8714C107.128 45.7593 107.023 45.3901 106.894 45.0508C106.765 44.7118 106.544 44.0651 106.404 43.6138C106.263 43.1625 106.004 42.3955 105.828 41.9095C105.653 41.4234 105.46 40.8642 105.399 40.6663C105.339 40.4687 105.238 40.2414 105.175 40.1613C105.112 40.0814 104.797 39.3909 104.476 38.6271C104.155 37.8633 103.851 37.1816 103.801 37.1121C103.751 37.0427 103.433 36.4462 103.095 35.7866C102.756 35.1269 102.346 34.3777 102.184 34.1217C102.022 33.8657 101.751 33.416 101.581 33.1225C101.21 32.4792 99.8172 30.3204 99.6215 30.0844C99.5448 29.9919 99.2788 29.6321 99.0305 29.2849C97.93 27.7466 95.1223 24.456 94.0912 23.4962C94.0058 23.4164 93.5343 22.9588 93.0434 22.4787C92.1645 21.6187 89.1112 19.0704 88.2511 18.4786C85.7688 16.7708 84.746 16.1156 83.2144 15.2512C82.2314 14.6963 81.2052 14.1405 80.934 14.0162C80.6628 13.8915 80.0403 13.5977 79.5506 13.3628C79.0613 13.1283 78.5882 12.9361 78.4995 12.9361C78.411 12.9361 78.2292 12.8604 78.0955 12.7679C77.4631 12.3298 72.8942 10.8307 70.518 10.2815C65.6218 9.14972 59.6372 8.73437 54.4933 9.16897Z" fill="black"/>
</svg>
